ReemKufi-Regular.ufo
<glyph name="parenleft" format="2">
  <advance width="310"/>
  <unicode hex="0028"/>
  <outline>
    <contour>
      <point x="285.0" y="700.0" type="curve"/>
      <point x="137.0" y="606.0"/>
      <point x="50.0" y="454.0"/>
      <point x="50.0" y="300.0" type="curve" smooth="yes"/>
      <point x="50.0" y="147.0"/>
      <point x="136.0" y="-7.0"/>
      <point x="285.0" y="-100.0" type="curve"/>
      <point x="189.0" y="-6.0"/>
      <point x="129.0" y="146.0"/>
      <point x="129.0" y="300.0" type="curve" smooth="yes"/>
      <point x="129.0" y="453.0"/>
      <point x="188.0" y="607.0"/>
    </contour>
  </outline>
</glyph>
<glyph name="uni0640" format="2">
  <advance width="300"/>
  <unicode hex="0640"/>
  <outline>
    <contour>
      <point x="320.0" y="100.0" type="line"/>
      <point x="320.0" y="0.0" type="line"/>
      <point x="-20.0" y="0.0" type="line"/>
      <point x="-20.0" y="100.0" type="line"/>
    </contour>
  </outline>
</glyph>
<glyph name="uni064B" format="2">
  <unicode hex="064B"/>
  <anchor x="0" y="0" name="_markAbove"/>
  <outline>
    <contour>
      <point x="-87.0" y="64.0" type="line"/>
      <point x="138.0" y="194.0" type="line"/>
      <point x="121.0" y="223.0" type="line"/>
      <point x="-104.0" y="93.0" type="line"/>
    </contour>
    <contour>
      <point x="-121.0" y="122.0" type="line"/>
      <point x="104.0" y="252.0" type="line"/>
      <point x="87.0" y="281.0" type="line"/>
      <point x="-138.0" y="151.0" type="line"/>
    </contour>
  </outline>
</glyph>
<glyph name="uni064C" format="2">
  <unicode hex="064C"/>
  <anchor x="0" y="0" name="_markAbove"/>
  <outline>
    <contour>
      <point x="-16.0" y="70.0" type="line"/>
      <point x="132.0" y="155.0" type="line"/>
      <point x="117.0" y="186.0" type="line"/>
      <point x="-33.0" y="99.0" type="line"/>
    </contour>
    <contour>
      <point x="174.0" y="180.0"/>
      <point x="189.0" y="235.0"/>
      <point x="166.0" y="275.0" type="curve" smooth="yes"/>
      <point x="141.0" y="318.0"/>
      <point x="86.0" y="332.0"/>
      <point x="44.0" y="308.0" type="curve" smooth="yes"/>
      <point x="4.0" y="285.0"/>
      <point x="-10.0" y="231.0"/>
      <point x="15.0" y="188.0" type="curve" smooth="yes"/>
      <point x="38.0" y="148.0"/>
      <point x="92.0" y="132.0"/>
      <point x="132.0" y="155.0" type="curve" smooth="yes"/>
    </contour>
    <contour>
      <point x="91.0" y="171.0"/>
      <point x="59.0" y="179.0"/>
      <point x="45.0" y="206.0" type="curve" smooth="yes"/>
      <point x="31.0" y="233.0"/>
      <point x="37.0" y="264.0"/>
      <point x="63.0" y="279.0" type="curve" smooth="yes"/>
      <point x="91.0" y="293.0"/>
      <point x="121.0" y="285.0"/>
      <point x="136.0" y="258.0" type="curve" smooth="yes"/>
      <point x="151.0" y="232.0"/>
      <point x="143.0" y="201.0"/>
      <point x="117.0" y="186.0" type="curve" smooth="yes"/>
    </contour>
    <contour>
      <point x="-16.0" y="70.0" type="line"/>
      <point x="-40.0" y="201.0" type="line"/>
      <point x="-73.0" y="195.0" type="line"/>
      <point x="-50.0" y="63.0" type="line"/>
    </contour>
  </outline>
</glyph>
<glyph name="uni064D" format="2">
  <unicode hex="064D"/>
  <anchor x="0" y="200" name="_markBelow"/>
  <outline>
    <contour>
      <point x="-87.0" y="-82.0" type="line"/>
      <point x="138.0" y="48.0" type="line"/>
      <point x="121.0" y="77.0" type="line"/>
      <point x="-104.0" y="-53.0" type="line"/>
    </contour>
    <contour>
      <point x="-121.0" y="-24.0" type="line"/>
      <point x="104.0" y="106.0" type="line"/>
      <point x="87.0" y="135.0" type="line"/>
      <point x="-138.0" y="5.0" type="line"/>
    </contour>
  </outline>
</glyph>
<glyph name="uni064E" format="2">
  <unicode hex="064E"/>
  <anchor x="0" y="0" name="_markAbove"/>
  <outline>
    <contour>
      <point x="-104.0" y="64.0" type="line"/>
      <point x="121.0" y="194.0" type="line"/>
      <point x="104.0" y="224.0" type="line"/>
      <point x="-121.0" y="94.0" type="line"/>
    </contour>
  </outline>
</glyph>
<glyph name="uni064F" format="2">
  <unicode hex="064F"/>
  <anchor x="0" y="0" name="_markAbove"/>
  <outline>
    <contour>
      <point x="-107" y="82" type="line"/>
      <point x="64" y="82" type="line"/>
      <point x="66" y="116" type="line"/>
      <point x="-107" y="116" type="line"/>
    </contour>
    <contour>
      <point x="113" y="82"/>
      <point x="153" y="122"/>
      <point x="153" y="169" type="curve" smooth="yes"/>
      <point x="153" y="218"/>
      <point x="113" y="258"/>
      <point x="64" y="258" type="curve" smooth="yes"/>
      <point x="18" y="258"/>
      <point x="-21" y="218"/>
      <point x="-21" y="169" type="curve" smooth="yes"/>
      <point x="-21" y="122"/>
      <point x="18" y="82"/>
      <point x="64" y="82" type="curve" smooth="yes"/>
    </contour>
    <contour>
      <point x="36" y="116"/>
      <point x="13" y="139"/>
      <point x="14" y="169" type="curve" smooth="yes"/>
      <point x="15" y="200"/>
      <point x="36" y="224"/>
      <point x="66" y="223" type="curve" smooth="yes"/>
      <point x="97" y="222"/>
      <point x="119" y="200"/>
      <point x="119" y="169" type="curve" smooth="yes"/>
      <point x="119" y="139"/>
      <point x="96" y="116"/>
      <point x="66" y="116" type="curve" smooth="yes"/>
    </contour>
  </outline>
</glyph>
<glyph name="uni0651" format="2">
  <unicode hex="0651"/>
  <anchor x="0" y="0" name="_markAbove"/>
  <outline>
    <contour>
      <point x="-17" y="148" type="line"/>
      <point x="-17" y="126"/>
      <point x="-36" y="108"/>
      <point x="-57" y="108" type="curve" smooth="yes"/>
      <point x="-77" y="108"/>
      <point x="-96" y="126"/>
      <point x="-96" y="148" type="curve"/>
      <point x="-130" y="148" type="line"/>
      <point x="-130" y="108"/>
      <point x="-97" y="74"/>
      <point x="-58" y="74" type="curve" smooth="yes"/>
      <point x="-16" y="74"/>
      <point x="17" y="108"/>
      <point x="17" y="148" type="curve"/>
    </contour>
    <contour>
      <point x="96" y="148" type="line"/>
      <point x="96" y="126"/>
      <point x="77" y="108"/>
      <point x="56" y="108" type="curve" smooth="yes"/>
      <point x="36" y="108"/>
      <point x="17" y="126"/>
      <point x="17" y="148" type="curve"/>
      <point x="-17" y="148" type="line"/>
      <point x="-17" y="108"/>
      <point x="16" y="74"/>
      <point x="55" y="74" type="curve" smooth="yes"/>
      <point x="97" y="74"/>
      <point x="130" y="108"/>
      <point x="130" y="148" type="curve"/>
    </contour>
    <contour>
      <point x="-96" y="200" type="line"/>
      <point x="-130" y="200" type="line"/>
      <point x="-130" y="148" type="line"/>
      <point x="-96" y="148" type="line"/>
    </contour>
    <contour>
      <point x="130" y="200" type="line"/>
      <point x="96" y="200" type="line"/>
      <point x="96" y="148" type="line"/>
      <point x="130" y="148" type="line"/>
    </contour>
    <contour>
      <point x="17" y="200" type="line"/>
      <point x="-17" y="200" type="line"/>
      <point x="-17" y="148" type="line"/>
      <point x="17" y="148" type="line"/>
    </contour>
  </outline>
</glyph>
<glyph name="uni06F2" format="2">
  <advance width="500"/>
  <unicode hex="06F2"/>
  <outline>
    <contour>
      <point x="100.0" y="450.0" type="line"/>
      <point x="100.0" y="350.0" type="line"/>
      <point x="390.0" y="350.0" type="line"/>
      <point x="390.0" y="350.0"/>
      <point x="430.0" y="348.0"/>
      <point x="430.0" y="373.0" type="curve" smooth="yes"/>
      <point x="430.0" y="600.0" type="line"/>
      <point x="330.0" y="578.0" type="line"/>
      <point x="330.0" y="450.0" type="line"/>
    </contour>
    <contour>
      <point x="170.0" y="599.0" type="line"/>
      <point x="70.0" y="577.0" type="line"/>
      <point x="70.0" y="0.0" type="line"/>
      <point x="170.0" y="0.0" type="line"/>
    </contour>
  </outline>
</glyph>
<glyph name="uni06F4" format="2">
  <advance width="500"/>
  <unicode hex="06F4"/>
  <outline>
    <contour>
      <point x="411.0" y="400.0" type="line"/>
      <point x="378.0" y="400.0" type="line" smooth="yes"/>
      <point x="345.0" y="400.0"/>
      <point x="295.0" y="412.0"/>
      <point x="295.0" y="466.0" type="curve" smooth="yes"/>
      <point x="295.0" y="514.0"/>
      <point x="332.0" y="537.0"/>
      <point x="364.0" y="537.0" type="curve" smooth="yes"/>
      <point x="401.0" y="537.0"/>
      <point x="429.0" y="520.0"/>
      <point x="439.0" y="514.0" type="curve"/>
      <point x="430.0" y="546.0"/>
      <point x="401.0" y="594.0"/>
      <point x="319.0" y="594.0" type="curve" smooth="yes"/>
      <point x="242.0" y="594.0"/>
      <point x="186.0" y="519.0"/>
      <point x="188.0" y="416.0" type="curve" smooth="yes"/>
      <point x="188.0" y="346.0" type="line"/>
      <point x="412.0" y="346.0" type="line"/>
    </contour>
    <contour>
      <point x="50.0" y="400.0" type="line"/>
      <point x="50.0" y="300.0" type="line"/>
      <point x="458.0" y="300.0" type="line"/>
      <point x="480.0" y="400.0" type="line"/>
    </contour>
    <contour>
      <point x="120.0" y="599.0" type="line"/>
      <point x="20.0" y="577.0" type="line"/>
      <point x="20.0" y="0.0" type="line"/>
      <point x="120.0" y="0.0" type="line"/>
    </contour>
  </outline>
</glyph>
<glyph name="ar1DotAbove.mark" format="2">
  <outline>
    <contour>
      <point x="-58.0" y="0.0" type="curve" smooth="yes"/>
      <point x="-58.0" y="32.0"/>
      <point x="-32.0" y="58.0"/>
      <point x="0.0" y="58.0" type="curve" smooth="yes"/>
      <point x="32.0" y="58.0"/>
      <point x="58.0" y="32.0"/>
      <point x="58.0" y="0.0" type="curve" smooth="yes"/>
      <point x="58.0" y="-32.0"/>
      <point x="32.0" y="-58.0"/>
      <point x="0.0" y="-58.0" type="curve" smooth="yes"/>
      <point x="-32.0" y="-58.0"/>
      <point x="-58.0" y="-32.0"/>
    </contour>
  </outline>
</glyph>
<glyph name="arAin.fina" format="2">
  <advance width="430"/>
  <outline>
    <contour>
      <point x="251.0" y="31.0" type="line"/>
      <point x="29.0" y="273.0" type="line"/>
      <point x="95.0" y="364.0" type="line"/>
      <point x="332.0" y="106.0" type="line"/>
    </contour>
    <contour>
      <point x="225.0" y="50.0" type="line"/>
      <point x="225.0" y="378.0" type="line"/>
      <point x="325.0" y="400.0" type="line"/>
      <point x="325.0" y="50.0" type="line"/>
    </contour>
    <contour>
      <point x="171.0" y="100.0" type="curve" smooth="yes"/>
      <point x="450.0" y="100.0" type="line"/>
      <point x="450.0" y="0.0" type="line"/>
      <point x="198.0" y="0.0" type="line" smooth="yes"/>
      <point x="172.0" y="0.0"/>
      <point x="126.0" y="-31.0"/>
      <point x="126.0" y="-72.0" type="curve" smooth="yes"/>
      <point x="126.0" y="-180.0"/>
      <point x="307.0" y="-169.0"/>
      <point x="371.0" y="-147.0" type="curve"/>
      <point x="325.0" y="-202.0"/>
      <point x="208.0" y="-223.0"/>
      <point x="132.0" y="-200.0" type="curve" smooth="yes"/>
      <point x="75.0" y="-182.0"/>
      <point x="25.0" y="-131.0"/>
      <point x="25.0" y="-60.0" type="curve" smooth="yes"/>
      <point x="25.0" y="23.0"/>
      <point x="70.0" y="100.0"/>
    </contour>
  </outline>
</glyph>
<glyph name="arAin.fina1" format="2">
  <advance width="490"/>
  <outline>
    <contour>
      <point x="318.0" y="300.0" type="line"/>
      <point x="202.0" y="300.0" type="line"/>
      <point x="330.0" y="76.0" type="line"/>
      <point x="243.0" y="26.0" type="line"/>
      <point x="31.0" y="400.0" type="line"/>
      <point x="490.0" y="400.0" type="line"/>
      <point x="277.0" y="26.0" type="line"/>
      <point x="191.0" y="76.0" type="line"/>
    </contour>
    <contour>
      <point x="171.0" y="100.0" type="curve" smooth="yes"/>
      <point x="510.0" y="100.0" type="line"/>
      <point x="510.0" y="0.0" type="line"/>
      <point x="198.0" y="0.0" type="line" smooth="yes"/>
      <point x="172.0" y="0.0"/>
      <point x="126.0" y="-31.0"/>
      <point x="126.0" y="-72.0" type="curve" smooth="yes"/>
      <point x="126.0" y="-180.0"/>
      <point x="307.0" y="-169.0"/>
      <point x="371.0" y="-147.0" type="curve"/>
      <point x="325.0" y="-202.0"/>
      <point x="208.0" y="-223.0"/>
      <point x="132.0" y="-200.0" type="curve" smooth="yes"/>
      <point x="75.0" y="-182.0"/>
      <point x="25.0" y="-131.0"/>
      <point x="25.0" y="-60.0" type="curve" smooth="yes"/>
      <point x="25.0" y="23.0"/>
      <point x="70.0" y="100.0"/>
    </contour>
  </outline>
</glyph>
<glyph name="arAin.init" format="2">
  <advance width="535"/>
  <anchor x="155.0" y="500.0" name="dotAbove"/>
  <anchor x="155.0" y="550.0" name="markAbove"/>
  <outline>
    <contour>
      <point x="96.0" y="100.0" type="line"/>
      <point x="68.0" y="116.0"/>
      <point x="66.0" y="165.0"/>
      <point x="78.0" y="183.0" type="curve" smooth="yes"/>
      <point x="94.0" y="208.0"/>
      <point x="144.0" y="259.0"/>
      <point x="306.0" y="311.0" type="curve"/>
      <point x="313.0" y="302.0" type="line"/>
      <point x="233.0" y="265.0"/>
      <point x="193.0" y="233.0"/>
      <point x="179.0" y="200.0" type="curve" smooth="yes"/>
      <point x="172.0" y="183.0"/>
      <point x="175.0" y="158.0"/>
      <point x="187.0" y="146.0" type="curve" smooth="yes"/>
      <point x="206.0" y="126.0"/>
      <point x="230.0" y="100.0"/>
      <point x="270.0" y="100.0" type="curve" smooth="yes"/>
      <point x="510.0" y="100.0" type="line"/>
      <point x="450.0" y="0.0" type="line"/>
      <point x="-20.0" y="0.0" type="line"/>
      <point x="-20.0" y="100.0" type="line"/>
    </contour>
  </outline>
</glyph>
<glyph name="arAin.medi" format="2">
  <advance width="350"/>
  <anchor x="85.0" y="550.0" name="dotAbove"/>
  <outline>
    <contour>
      <point x="-20.0" y="100.0" type="line"/>
      <point x="370.0" y="100.0" type="line"/>
      <point x="370.0" y="0.0" type="line"/>
      <point x="-20.0" y="0.0" type="line"/>
    </contour>
    <contour>
      <point x="181.0" y="31.0" type="line"/>
      <point x="-41.0" y="273.0" type="line"/>
      <point x="25.0" y="364.0" type="line"/>
      <point x="262.0" y="106.0" type="line"/>
    </contour>
    <contour>
      <point x="155.0" y="50.0" type="line"/>
      <point x="155.0" y="378.0" type="line"/>
      <point x="255.0" y="400.0" type="line"/>
      <point x="255.0" y="50.0" type="line"/>
    </contour>
  </outline>
</glyph>
<glyph name="arAin.medi1" format="2">
  <advance width="460"/>
  <anchor x="225.0" y="550.0" name="dotAbove"/>
  <outline>
    <contour>
      <point x="287.0" y="300.0" type="line"/>
      <point x="171.0" y="300.0" type="line"/>
      <point x="299.0" y="76.0" type="line"/>
      <point x="212.0" y="26.0" type="line"/>
      <point x="0.0" y="400.0" type="line"/>
      <point x="460.0" y="400.0" type="line"/>
      <point x="246.0" y="26.0" type="line"/>
      <point x="160.0" y="76.0" type="line"/>
    </contour>
    <contour>
      <point x="-20.0" y="100.0" type="line"/>
      <point x="480.0" y="100.0" type="line"/>
      <point x="480.0" y="0.0" type="line"/>
      <point x="-20.0" y="0.0" type="line"/>
    </contour>
  </outline>
</glyph>
<glyph name="arAlef.fina" format="2">
  <advance width="225"/>
  <anchor x="90.0" y="-50.0" name="hamzaBelow"/>
  <anchor x="90.0" y="850.0" name="hamzaAbove"/>
  <outline>
    <contour>
      <point x="125.0" y="800.0" type="line"/>
      <point x="125.0" y="100.0" type="line"/>
      <point x="245.0" y="100.0" type="line"/>
      <point x="245.0" y="0.0" type="line"/>
      <point x="65.0" y="0.0" type="line"/>
      <point x="65.0" y="0.0"/>
      <point x="25.0" y="-2.0"/>
      <point x="25.0" y="23.0" type="curve" smooth="yes"/>
      <point x="25.0" y="778.0" type="line"/>
    </contour>
  </outline>
</glyph>
<glyph name="arAlef.fina1Lam" format="2">
  <anchor x="90.0" y="-50.0" name="hamzaBelow"/>
  <anchor x="90.0" y="850.0" name="hamzaAbove"/>
  <outline>
    <contour>
      <point x="25.0" y="350.0" type="line"/>
      <point x="25.0" y="778.0" type="line"/>
      <point x="125.0" y="800.0" type="line"/>
      <point x="125.0" y="300.0" type="line"/>
    </contour>
  </outline>
</glyph>
<glyph name="arAlef.finaLam" format="2">
  <outline>
    <contour>
      <point x="25.0" y="150.0" type="line"/>
      <point x="25.0" y="778.0" type="line"/>
      <point x="125.0" y="800.0" type="line"/>
      <point x="125.0" y="100.0" type="line"/>
    </contour>
  </outline>
</glyph>
<glyph name="arAlef.isol" format="2">
  <advance width="220"/>
  <outline>
    <contour>
      <point x="125.0" y="800.0" type="line"/>
      <point x="125.0" y="80.0" type="line" smooth="yes"/>
      <point x="125.0" y="33.0"/>
      <point x="195.0" y="46.0"/>
      <point x="220.0" y="58.0" type="curve"/>
      <point x="199.0" y="-17.0"/>
      <point x="25.0" y="-40.0"/>
      <point x="25.0" y="80.0" type="curve" smooth="yes"/>
      <point x="25.0" y="778.0" type="line"/>
    </contour>
  </outline>
</glyph>
<glyph name="arAlef.isol2" format="2">
  <advance width="418"/>
  <anchor x="320.0" y="560.0" name="hamzaAbove.alt"/>
  <anchor x="201.0" y="-50.0" name="hamzaBelow"/>
  <anchor x="90.0" y="850.0" name="hamzaAbove"/>
  <anchor x="90.0" y="830.0" name="markAbove"/>
  <anchor x="201.0" y="-150.0" name="markBelow"/>
  <outline>
    <contour>
      <point x="125.0" y="800.0" type="line"/>
      <point x="125.0" y="120.0" type="line" smooth="yes"/>
      <point x="125.0" y="43.0"/>
      <point x="294.0" y="40.0"/>
      <point x="418.0" y="101.0" type="curve"/>
      <point x="340.0" y="-7.0"/>
      <point x="25.0" y="-78.0"/>
      <point x="25.0" y="120.0" type="curve" smooth="yes"/>
      <point x="25.0" y="778.0" type="line"/>
    </contour>
  </outline>
</glyph>
<glyph name="arBeh.fina" format="2">
  <advance width="925"/>
  <outline>
    <contour>
      <point x="825.0" y="300.0" type="line"/>
      <point x="825.0" y="100.0" type="line"/>
      <point x="945.0" y="100.0" type="line"/>
      <point x="945.0" y="0.0" type="line"/>
      <point x="25.0" y="0.0" type="line"/>
      <point x="85.0" y="100.0" type="line"/>
      <point x="725.0" y="100.0" type="line"/>
      <point x="725.0" y="278.0" type="line"/>
    </contour>
  </outline>
</glyph>
<glyph name="arBeh.initHah" format="2">
  <outline>
    <contour>
      <point x="-265.0" y="300.0" type="line" smooth="yes"/>
      <point x="-265.0" y="117.0"/>
      <point x="-400.0" y="158.0"/>
      <point x="-435.0" y="165.0" type="curve"/>
      <point x="-360.0" y="175.0"/>
      <point x="-365.0" y="230.0"/>
      <point x="-365.0" y="300.0" type="curve" smooth="yes"/>
      <point x="-365.0" y="378.0" type="line"/>
      <point x="-265.0" y="400.0" type="line"/>
    </contour>
  </outline>
</glyph>
<glyph name="arBeh.isol" format="2">
  <advance width="850"/>
  <outline>
    <contour>
      <point x="825.0" y="300.0" type="line"/>
      <point x="825.0" y="23.0" type="line" smooth="yes"/>
      <point x="825.0" y="-2.0"/>
      <point x="785.0" y="0.0"/>
      <point x="785.0" y="0.0" type="curve"/>
      <point x="25.0" y="0.0" type="line"/>
      <point x="85.0" y="100.0" type="line"/>
      <point x="725.0" y="100.0" type="line"/>
      <point x="725.0" y="278.0" type="line"/>
    </contour>
  </outline>
</glyph>
<glyph name="arBeh.medi" format="2">
  <advance width="300"/>
  <outline>
    <contour>
      <point x="200.0" y="300.0" type="line"/>
      <point x="200.0" y="100.0" type="line"/>
      <point x="320.0" y="100.0" type="line"/>
      <point x="320.0" y="0.0" type="line"/>
      <point x="-20.0" y="0.0" type="line"/>
      <point x="-20.0" y="100.0" type="line"/>
      <point x="100.0" y="100.0" type="line"/>
      <point x="100.0" y="278.0" type="line"/>
    </contour>
  </outline>
</glyph>
<glyph name="arBeh.medi.wide" format="2">
  <advance width="400.0"/>
  <anchor x="83.0" y="483.0" name="dotAbove"/>
  <anchor x="83.0" y="-150.0" name="dotBelow"/>
  <anchor x="75.0" y="422.0" name="hamzaAbove"/>
  <outline>
    <contour>
      <point x="109.0" y="100.0" type="line"/>
      <point x="109.0" y="0.0" type="line"/>
      <point x="-20.0" y="0.0" type="line"/>
      <point x="-20.0" y="100.0" type="line"/>
    </contour>
    <component base="arBeh.medi" xOffset="100"/>
  </outline>
</glyph>
<glyph name="arBeh.mediWide" format="2">
  <advance width="400.0"/>
  <anchor x="83.0" y="483.0" name="dotAbove"/>
  <anchor x="83.0" y="-150.0" name="dotBelow"/>
  <anchor x="75.0" y="422.0" name="hamzaAbove"/>
  <anchor x="83.0" y="483.0" name="markAbove"/>
  <anchor x="83.0" y="-150.0" name="markBelow"/>
  <outline>
    <contour>
      <point x="109.0" y="100.0" type="line"/>
      <point x="109.0" y="0.0" type="line"/>
      <point x="-20.0" y="0.0" type="line"/>
      <point x="-20.0" y="100.0" type="line"/>
    </contour>
    <component base="arBeh.medi" xOffset="100"/>
  </outline>
</glyph>
<glyph name="arDal.isol" format="2">
  <advance width="870"/>
  <anchor x="435.0" y="500.0" name="dotAbove"/>
  <anchor x="435.0" y="440.0" name="hamzaAbove"/>
  <anchor x="435.0" y="500.0" name="markAbove"/>
  <anchor x="435.0" y="-150.0" name="markBelow"/>
  <outline>
    <contour>
      <point x="277.0" y="413.0" type="line"/>
      <point x="225.0" y="300.0" type="line"/>
      <point x="655.0" y="300.0" type="line" smooth="yes"/>
      <point x="862.0" y="300.0"/>
      <point x="845.0" y="143.0"/>
      <point x="845.0" y="23.0" type="curve" smooth="yes"/>
      <point x="845.0" y="-2.0"/>
      <point x="805.0" y="0.0"/>
      <point x="805.0" y="0.0" type="curve"/>
      <point x="25.0" y="0.0" type="line"/>
      <point x="85.0" y="100.0" type="line"/>
      <point x="745.0" y="100.0" type="line"/>
      <point x="746.0" y="156.0"/>
      <point x="730.0" y="200.0"/>
      <point x="655.0" y="200.0" type="curve" smooth="yes"/>
      <point x="135.0" y="200.0" type="line"/>
      <point x="267.0" y="420.0" type="line"/>
    </contour>
  </outline>
</glyph>
<glyph name="arFeh.fina" format="2">
  <advance width="925"/>
  <anchor x="675.0" y="600.0" name="dotAbove"/>
  <outline>
    <contour>
      <point x="625.0" y="300.0" type="curve" smooth="yes"/>
      <point x="625.0" y="272.0"/>
      <point x="648.0" y="249.0"/>
      <point x="676.0" y="249.0" type="curve" smooth="yes"/>
      <point x="704.0" y="249.0"/>
      <point x="728.0" y="272.0"/>
      <point x="728.0" y="300.0" type="curve" smooth="yes"/>
      <point x="728.0" y="328.0"/>
      <point x="704.0" y="351.0"/>
      <point x="676.0" y="351.0" type="curve" smooth="yes"/>
      <point x="648.0" y="351.0"/>
      <point x="625.0" y="328.0"/>
    </contour>
    <contour>
      <point x="528.0" y="300.0" type="curve" smooth="yes"/>
      <point x="528.0" y="383.0"/>
      <point x="594.0" y="450.0"/>
      <point x="676.0" y="450.0" type="curve" smooth="yes"/>
      <point x="758.0" y="450.0"/>
      <point x="825.0" y="383.0"/>
      <point x="825.0" y="300.0" type="curve" smooth="yes"/>
      <point x="825.0" y="217.0"/>
      <point x="758.0" y="150.0"/>
      <point x="676.0" y="150.0" type="curve" smooth="yes"/>
      <point x="594.0" y="150.0"/>
      <point x="528.0" y="217.0"/>
    </contour>
    <contour>
      <point x="825.0" y="300.0" type="line"/>
      <point x="825.0" y="100.0" type="line"/>
      <point x="945.0" y="100.0" type="line"/>
      <point x="945.0" y="0.0" type="line"/>
      <point x="25.0" y="0.0" type="line"/>
      <point x="85.0" y="100.0" type="line"/>
      <point x="725.0" y="100.0" type="line"/>
      <point x="725.0" y="228.0" type="line"/>
    </contour>
  </outline>
</glyph>
<glyph name="arFeh.medi" format="2">
  <advance width="500"/>
  <anchor x="250.0" y="600.0" name="dotAbove"/>
  <outline>
    <contour>
      <point x="200.0" y="300.0" type="curve" smooth="yes"/>
      <point x="200.0" y="272.0"/>
      <point x="223.0" y="249.0"/>
      <point x="251.0" y="249.0" type="curve" smooth="yes"/>
      <point x="279.0" y="249.0"/>
      <point x="303.0" y="272.0"/>
      <point x="303.0" y="300.0" type="curve" smooth="yes"/>
      <point x="303.0" y="328.0"/>
      <point x="279.0" y="351.0"/>
      <point x="251.0" y="351.0" type="curve" smooth="yes"/>
      <point x="223.0" y="351.0"/>
      <point x="200.0" y="328.0"/>
    </contour>
    <contour>
      <point x="103.0" y="300.0" type="curve" smooth="yes"/>
      <point x="103.0" y="383.0"/>
      <point x="169.0" y="450.0"/>
      <point x="251.0" y="450.0" type="curve" smooth="yes"/>
      <point x="333.0" y="450.0"/>
      <point x="400.0" y="383.0"/>
      <point x="400.0" y="300.0" type="curve" smooth="yes"/>
      <point x="400.0" y="217.0"/>
      <point x="333.0" y="150.0"/>
      <point x="251.0" y="150.0" type="curve" smooth="yes"/>
      <point x="169.0" y="150.0"/>
      <point x="103.0" y="217.0"/>
    </contour>
    <contour>
      <point x="400.0" y="300.0" type="line"/>
      <point x="400.0" y="100.0" type="line"/>
      <point x="520.0" y="100.0" type="line"/>
      <point x="520.0" y="0.0" type="line"/>
      <point x="-20.0" y="0.0" type="line"/>
      <point x="-20.0" y="100.0" type="line"/>
      <point x="300.0" y="100.0" type="line"/>
      <point x="300.0" y="228.0" type="line"/>
    </contour>
  </outline>
</glyph>
<glyph name="arHah.fina" format="2">
  <advance width="430"/>
  <anchor x="190.0" y="500.0" name="dotAbove"/>
  <anchor x="181.0" y="-260.0" name="dotBelow"/>
  <anchor x="215.0" y="-85.0" name="dotBelow.alt"/>
  <outline>
    <contour>
      <point x="122.0" y="259.0" type="curve"/>
      <point x="77.0" y="259.0" type="line"/>
      <point x="27.0" y="359.0" type="line"/>
      <point x="194.0" y="359.0" type="line"/>
      <point x="463.0" y="-123.0" type="line"/>
      <point x="380.0" y="-200.0" type="line"/>
      <point x="294.0" y="-47.0"/>
      <point x="208.0" y="106.0"/>
    </contour>
    <contour>
      <point x="182.0" y="100.0" type="curve" smooth="yes"/>
      <point x="450.0" y="100.0" type="line"/>
      <point x="450.0" y="0.0" type="line"/>
      <point x="182.0" y="0.0" type="line" smooth="yes"/>
      <point x="156.0" y="0.0"/>
      <point x="111.0" y="-21.0"/>
      <point x="111.0" y="-72.0" type="curve" smooth="yes"/>
      <point x="111.0" y="-180.0"/>
      <point x="232.0" y="-187.0"/>
      <point x="296.0" y="-167.0" type="curve"/>
      <point x="239.0" y="-207.0"/>
      <point x="136.0" y="-217.0"/>
      <point x="75.0" y="-170.0" type="curve" smooth="yes"/>
      <point x="45.0" y="-147.0"/>
      <point x="25.0" y="-110.0"/>
      <point x="25.0" y="-57.0" type="curve" smooth="yes"/>
      <point x="25.0" y="13.0"/>
      <point x="54.0" y="100.0"/>
    </contour>
  </outline>
</glyph>
<glyph name="arHah.init" format="2">
  <advance width="685"/>
  <anchor x="170.0" y="450.0" name="dotAbove"/>
  <anchor x="240.0" y="-150.0" name="dotBelow"/>
  <outline>
    <contour>
      <point x="173.0" y="100.0" type="line"/>
      <point x="145.0" y="116.0"/>
      <point x="111.0" y="157.0"/>
      <point x="95.0" y="183.0" type="curve"/>
      <point x="151.0" y="290.0" type="line"/>
      <point x="221.0" y="179.0"/>
      <point x="320.0" y="100.0"/>
      <point x="416.0" y="100.0" type="curve" smooth="yes"/>
      <point x="660.0" y="100.0" type="line"/>
      <point x="600.0" y="0.0" type="line"/>
      <point x="-20.0" y="0.0" type="line"/>
      <point x="-20.0" y="100.0" type="line"/>
    </contour>
  </outline>
</glyph>
<glyph name="arHah.init2" format="2">
  <advance width="565.0"/>
  <anchor x="370.0" y="250.0" name="dotAbove"/>
  <anchor x="240.0" y="-150.0" name="dotBelow"/>
  <anchor x="270.0" y="890.0" name="markAbove"/>
  <anchor x="240.0" y="-150.0" name="markBelow"/>
  <outline>
    <contour>
      <point x="296.76573020646157" y="560.8358772352735" type="curve"/>
      <point x="296.76573020646157" y="560.8358772352735"/>
      <point x="210.23401240953046" y="437.00734523554974"/>
      <point x="157.20018407731158" y="359.72618499769965" type="curve" smooth="yes"/>
      <point x="70.24193101477903" y="233.0101831501308"/>
      <point x="152.9825066256455" y="120.96220043255866"/>
      <point x="181.09333038330078" y="100" type="curve"/>
      <point x="-20" y="100" type="line"/>
      <point x="-20" y="0" type="line"/>
      <point x="480" y="0" type="line"/>
      <point x="540" y="100" type="line"/>
      <point x="425.3319625854492" y="100" type="line" smooth="yes"/>
      <point x="273.58753558909757" y="100.0"/>
      <point x="204.0579597828227" y="234.40674412420776"/>
      <point x="260.0" y="315.0" type="curve" smooth="yes"/>
      <point x="376.7517547607422" y="483.19915771484375" type="line" smooth="yes"/>
      <point x="441.63208674202076" y="576.9547974676598"/>
      <point x="426.68980247208657" y="691.1617439344923"/>
      <point x="345.7517531556803" y="768.1991584852735" type="curve" smooth="yes"/>
      <point x="292.03413230607094" y="819.739075477461"/>
      <point x="207.75334006974276" y="827.0150764540235"/>
      <point x="135.7517531556803" y="814.5085456923048" type="curve" smooth="yes"/>
      <point x="108.56584006974279" y="809.7863777235548"/>
      <point x="78.75175315568029" y="815.6991584852735"/>
      <point x="56.75175315568029" y="823.1991584852735" type="curve"/>
      <point x="100.75175476074219" y="674.1991577148438" type="line"/>
      <point x="117.75175315568029" y="687.6991584852735"/>
      <point x="147.1521437806803" y="707.2987678602735"/>
      <point x="168.7517531556803" y="710.1366584852735" type="curve" smooth="yes"/>
      <point x="208.90897971818026" y="715.4130256727735"/>
      <point x="247.44132835099276" y="708.6080940321485"/>
      <point x="274.75175315568026" y="685.1991584852735" type="curve" smooth="yes"/>
      <point x="309.09419089982094" y="656.140198524336"/>
      <point x="320.2751906556803" y="594.7743537977735"/>
    </contour>
  </outline>
</glyph>
<glyph name="arHah.isol" format="2">
  <advance width="515"/>
  <anchor x="150.0" y="500.0" name="dotAbove"/>
  <anchor x="201.0" y="-270.0" name="dotBelow"/>
  <anchor x="225.0" y="-80.0" name="dotBelow.alt"/>
  <anchor x="150.0" y="500.0" name="markAbove"/>
  <anchor x="225.0" y="-80.0" name="markBelow"/>
  <outline>
    <contour>
      <point x="25.0" y="-60.0" type="curve" smooth="yes"/>
      <point x="25.0" y="23.0"/>
      <point x="74.0" y="59.0"/>
      <point x="118.0" y="85.0" type="curve"/>
      <point x="88.0" y="105.0"/>
      <point x="45.0" y="161.0"/>
      <point x="25.0" y="193.0" type="curve"/>
      <point x="81.0" y="300.0" type="line"/>
      <point x="151.0" y="189.0"/>
      <point x="243.0" y="100.0"/>
      <point x="311.0" y="100.0" type="curve" smooth="yes"/>
      <point x="490.0" y="100.0" type="line"/>
      <point x="430.0" y="0.0" type="line"/>
      <point x="198.0" y="0.0" type="line" smooth="yes"/>
      <point x="172.0" y="0.0"/>
      <point x="126.0" y="-31.0"/>
      <point x="126.0" y="-72.0" type="curve" smooth="yes"/>
      <point x="126.0" y="-180.0"/>
      <point x="307.0" y="-169.0"/>
      <point x="371.0" y="-147.0" type="curve"/>
      <point x="325.0" y="-202.0"/>
      <point x="208.0" y="-223.0"/>
      <point x="132.0" y="-200.0" type="curve" smooth="yes"/>
      <point x="75.0" y="-182.0"/>
      <point x="25.0" y="-131.0"/>
    </contour>
  </outline>
</glyph>
<glyph name="arHah.medi1" format="2">
  <advance width="378"/>
  <outline>
    <contour>
      <point x="-20.0" y="100.0" type="line"/>
      <point x="398.0" y="100.0" type="line"/>
      <point x="398.0" y="0.0" type="line"/>
      <point x="-20.0" y="0.0" type="line"/>
    </contour>
    <contour>
      <point x="167.576171875" y="313.171875" type="line"/>
      <point x="411.0" y="-123.0" type="line"/>
      <point x="328.0" y="-200.0" type="line"/>
      <point x="83.6044921875" y="234.796875" type="line"/>
    </contour>
  </outline>
</glyph>
<glyph name="arHah.medi2" format="2">
  <advance width="480.0"/>
  <anchor x="350.0" y="250.0" name="dotAbove"/>
  <anchor x="220.0" y="-150.0" name="dotBelow"/>
  <anchor x="250.0" y="890.0" name="markAbove"/>
  <anchor x="220.0" y="-150.0" name="markBelow"/>
  <outline>
    <contour>
      <point x="276.76573020646157" y="560.8358772352735" type="curve"/>
      <point x="276.76573020646157" y="560.8358772352735"/>
      <point x="190.23401240953046" y="437.00734523554974"/>
      <point x="137.20018407731158" y="359.72618499769965" type="curve" smooth="yes"/>
      <point x="50.24193101477903" y="233.0101831501308"/>
      <point x="132.9825066256455" y="120.96220043255866"/>
      <point x="161.09333038330078" y="100" type="curve"/>
      <point x="-20" y="100" type="line"/>
      <point x="-20" y="0" type="line"/>
      <point x="500" y="0" type="line"/>
      <point x="500" y="100" type="line"/>
      <point x="405.3319625854492" y="100" type="line" smooth="yes"/>
      <point x="253.58753558909757" y="100.0"/>
      <point x="184.05795978283072" y="234.40674412421936"/>
      <point x="240.0" y="315.0" type="curve" smooth="yes"/>
      <point x="356.7517547607422" y="483.19915771484375" type="line" smooth="yes"/>
      <point x="421.76583251136674" y="576.8621021362928"/>
      <point x="406.68980247208657" y="691.1617439344923"/>
      <point x="325.7517531556803" y="768.1991584852735" type="curve" smooth="yes"/>
      <point x="272.03413230607094" y="819.739075477461"/>
      <point x="187.75334006974276" y="827.0150764540235"/>
      <point x="115.75175315568029" y="814.5085456923048" type="curve" smooth="yes"/>
      <point x="88.56584006974279" y="809.7863777235548"/>
      <point x="58.75175315568029" y="815.6991584852735"/>
      <point x="36.75175315568029" y="823.1991584852735" type="curve"/>
      <point x="80.75175476074219" y="674.1991577148438" type="line"/>
      <point x="97.75175315568029" y="687.6991584852735"/>
      <point x="127.15214378068029" y="707.2987678602735"/>
      <point x="148.7517531556803" y="710.1366584852735" type="curve" smooth="yes"/>
      <point x="188.90897971818026" y="715.4130256727735"/>
      <point x="227.44132835099276" y="708.6080940321485"/>
      <point x="254.75175315568026" y="685.1991584852735" type="curve" smooth="yes"/>
      <point x="289.09419089982094" y="656.140198524336"/>
      <point x="300.2751906556803" y="594.7743537977735"/>
    </contour>
  </outline>
</glyph>
<glyph name="arHeh.fina" format="2">
  <advance width="415"/>
  <anchor x="104.0" y="450.0" name="dotAbove"/>
  <anchor x="104.0" y="450.0" name="markAbove"/>
  <outline>
    <contour>
      <point x="322.0" y="150.0" type="line"/>
      <point x="322.0" y="87.0" type="line"/>
      <point x="308.0" y="87.0" type="line"/>
      <point x="308.0" y="150.0" type="line"/>
    </contour>
    <contour>
      <point x="435.0" y="100.0" type="line"/>
      <point x="435.0" y="0.0" type="line"/>
      <point x="173.0" y="0.0" type="line"/>
      <point x="238.0" y="100.0" type="line"/>
    </contour>
    <contour>
      <point x="322.0" y="150.0" type="line"/>
      <point x="173.0" y="300.0" type="line"/>
      <point x="208.0" y="300.0"/>
      <point x="295.0" y="294.0"/>
      <point x="322.0" y="346.0" type="curve"/>
    </contour>
    <contour>
      <point x="124.0" y="150.0" type="curve" smooth="yes"/>
      <point x="124.0" y="122.0"/>
      <point x="146.0" y="100.0"/>
      <point x="174.0" y="100.0" type="curve" smooth="yes"/>
      <point x="202.0" y="100.0"/>
      <point x="224.0" y="122.0"/>
      <point x="224.0" y="150.0" type="curve" smooth="yes"/>
      <point x="224.0" y="178.0"/>
      <point x="202.0" y="200.0"/>
      <point x="174.0" y="200.0" type="curve" smooth="yes"/>
      <point x="146.0" y="200.0"/>
      <point x="124.0" y="178.0"/>
    </contour>
    <contour>
      <point x="25.0" y="150.0" type="curve" smooth="yes"/>
      <point x="25.0" y="233.0"/>
      <point x="91.0" y="300.0"/>
      <point x="173.0" y="300.0" type="curve" smooth="yes"/>
      <point x="255.0" y="300.0"/>
      <point x="322.0" y="233.0"/>
      <point x="322.0" y="150.0" type="curve" smooth="yes"/>
      <point x="322.0" y="67.0"/>
      <point x="255.0" y="0.0"/>
      <point x="173.0" y="0.0" type="curve" smooth="yes"/>
      <point x="91.0" y="0.0"/>
      <point x="25.0" y="67.0"/>
    </contour>
    <contour>
      <point x="222.0" y="467.0" type="line"/>
      <point x="222.0" y="778.0" type="line"/>
      <point x="322.0" y="800.0" type="line"/>
      <point x="322.0" y="515.0" type="line"/>
    </contour>
    <contour>
      <point x="222.0" y="320.0" type="curve"/>
      <point x="222.0" y="447.0" type="line"/>
      <point x="322.0" y="495.0" type="line"/>
      <point x="322.0" y="374.0" type="line"/>
      <point x="304.0" y="340.0"/>
      <point x="260.0" y="322.0"/>
    </contour>
  </outline>
</glyph>
<glyph name="arHeh.init" format="2">
  <advance width="419"/>
  <anchor x="225.0" y="550.0" name="markAbove"/>
  <anchor x="246.0" y="-270.0" name="markBelow"/>
  <outline>
    <contour>
      <point x="111.0" y="150.0" type="line"/>
      <point x="111.0" y="-50.0" type="line"/>
      <point x="97.0" y="-50.0" type="line"/>
      <point x="97.0" y="150.0" type="line"/>
    </contour>
    <contour>
      <point x="195.0" y="-50.0" type="curve" smooth="yes"/>
      <point x="195.0" y="-78.0"/>
      <point x="217.0" y="-100.0"/>
      <point x="245.0" y="-100.0" type="curve" smooth="yes"/>
      <point x="273.0" y="-100.0"/>
      <point x="295.0" y="-78.0"/>
      <point x="295.0" y="-50.0" type="curve" smooth="yes"/>
      <point x="295.0" y="-22.0"/>
      <point x="273.0" y="0.0"/>
      <point x="245.0" y="0.0" type="curve" smooth="yes"/>
      <point x="217.0" y="0.0"/>
      <point x="195.0" y="-22.0"/>
    </contour>
    <contour>
      <point x="97.0" y="-50.0" type="curve" smooth="yes"/>
      <point x="97.0" y="33.0"/>
      <point x="163.0" y="100.0"/>
      <point x="245.0" y="100.0" type="curve" smooth="yes"/>
      <point x="327.0" y="100.0"/>
      <point x="394.0" y="33.0"/>
      <point x="394.0" y="-50.0" type="curve" smooth="yes"/>
      <point x="394.0" y="-133.0"/>
      <point x="327.0" y="-200.0"/>
      <point x="245.0" y="-200.0" type="curve" smooth="yes"/>
      <point x="163.0" y="-200.0"/>
      <point x="97.0" y="-133.0"/>
    </contour>
    <contour>
      <point x="-20.0" y="100.0" type="line"/>
      <point x="180.0" y="100.0" type="line"/>
      <point x="245.0" y="0.0" type="line"/>
      <point x="-20.0" y="0.0" type="line"/>
    </contour>
    <contour>
      <point x="394.0" y="150.0" type="line"/>
      <point x="394.0" y="-50.0" type="line"/>
      <point x="350.0" y="-50.0" type="line"/>
      <point x="350.0" y="150.0" type="line"/>
    </contour>
    <contour>
      <point x="394.0" y="150.0" type="line"/>
      <point x="245.0" y="300.0" type="line"/>
      <point x="280.0" y="300.0"/>
      <point x="367.0" y="294.0"/>
      <point x="394.0" y="346.0" type="curve"/>
    </contour>
    <contour>
      <point x="195.0" y="150.0" type="curve" smooth="yes"/>
      <point x="195.0" y="122.0"/>
      <point x="217.0" y="100.0"/>
      <point x="245.0" y="100.0" type="curve" smooth="yes"/>
      <point x="273.0" y="100.0"/>
      <point x="295.0" y="122.0"/>
      <point x="295.0" y="150.0" type="curve" smooth="yes"/>
      <point x="295.0" y="178.0"/>
      <point x="273.0" y="200.0"/>
      <point x="245.0" y="200.0" type="curve" smooth="yes"/>
      <point x="217.0" y="200.0"/>
      <point x="195.0" y="178.0"/>
    </contour>
    <contour>
      <point x="97.0" y="150.0" type="curve" smooth="yes"/>
      <point x="97.0" y="233.0"/>
      <point x="163.0" y="300.0"/>
      <point x="245.0" y="300.0" type="curve" smooth="yes"/>
      <point x="327.0" y="300.0"/>
      <point x="394.0" y="233.0"/>
      <point x="394.0" y="150.0" type="curve" smooth="yes"/>
      <point x="394.0" y="67.0"/>
      <point x="327.0" y="0.0"/>
      <point x="245.0" y="0.0" type="curve" smooth="yes"/>
      <point x="163.0" y="0.0"/>
      <point x="97.0" y="67.0"/>
    </contour>
  </outline>
</glyph>
<glyph name="arHeh.init1" format="2">
  <advance width="419"/>
  <outline>
    <contour>
      <point x="295.0" y="272.0" type="line"/>
      <point x="295.0" y="378.0" type="line"/>
      <point x="394.0" y="400.0" type="line"/>
      <point x="394.0" y="240.0" type="line"/>
    </contour>
    <component base="arHeh.init"/>
  </outline>
</glyph>
<glyph name="arHeh.isol1" format="2">
  <advance width="347"/>
  <anchor x="180.0" y="500.0" name="dotAbove"/>
  <anchor x="174.0" y="450.0" name="hamzaAbove"/>
  <anchor x="180.0" y="500.0" name="markAbove"/>
  <outline>
    <contour>
      <point x="322.0" y="150.0" type="line"/>
      <point x="173.0" y="300.0" type="line"/>
      <point x="208.0" y="300.0"/>
      <point x="295.0" y="294.0"/>
      <point x="322.0" y="346.0" type="curve"/>
    </contour>
    <contour>
      <point x="124.0" y="150.0" type="curve" smooth="yes"/>
      <point x="124.0" y="122.0"/>
      <point x="146.0" y="100.0"/>
      <point x="174.0" y="100.0" type="curve" smooth="yes"/>
      <point x="202.0" y="100.0"/>
      <point x="224.0" y="122.0"/>
      <point x="224.0" y="150.0" type="curve" smooth="yes"/>
      <point x="224.0" y="178.0"/>
      <point x="202.0" y="200.0"/>
      <point x="174.0" y="200.0" type="curve" smooth="yes"/>
      <point x="146.0" y="200.0"/>
      <point x="124.0" y="178.0"/>
    </contour>
    <contour>
      <point x="25.0" y="150.0" type="curve" smooth="yes"/>
      <point x="25.0" y="233.0"/>
      <point x="91.0" y="300.0"/>
      <point x="173.0" y="300.0" type="curve" smooth="yes"/>
      <point x="255.0" y="300.0"/>
      <point x="322.0" y="233.0"/>
      <point x="322.0" y="150.0" type="curve" smooth="yes"/>
      <point x="322.0" y="67.0"/>
      <point x="255.0" y="0.0"/>
      <point x="173.0" y="0.0" type="curve" smooth="yes"/>
      <point x="91.0" y="0.0"/>
      <point x="25.0" y="67.0"/>
    </contour>
  </outline>
</glyph>
<glyph name="arHeh.medi1" format="2">
  <advance width="487"/>
  <outline>
    <contour>
      <point x="507.0" y="100.0" type="line"/>
      <point x="507.0" y="0.0" type="line"/>
      <point x="245.0" y="0.0" type="line"/>
      <point x="310.0" y="100.0" type="line"/>
    </contour>
    <component base="arHeh.init1"/>
  </outline>
</glyph>
<glyph name="arHeh.medi3" format="2">
  <advance width="487"/>
  <outline>
    <contour>
      <point x="295.0" y="44.0" type="line"/>
      <point x="295.0" y="532.0" type="line"/>
      <point x="394.0" y="554.0" type="line"/>
      <point x="394.0" y="44.0" type="line"/>
    </contour>
    <contour>
      <point x="131.0" y="304.0" type="line"/>
      <point x="131.0" y="84.0" type="line"/>
      <point x="97.0" y="84.0" type="line"/>
      <point x="97.0" y="304.0" type="line"/>
    </contour>
    <contour>
      <point x="195.0" y="149.0" type="curve" smooth="yes"/>
      <point x="195.0" y="121.0"/>
      <point x="217.0" y="99.0"/>
      <point x="245.0" y="99.0" type="curve" smooth="yes"/>
      <point x="273.0" y="99.0"/>
      <point x="295.0" y="121.0"/>
      <point x="295.0" y="149.0" type="curve" smooth="yes"/>
      <point x="295.0" y="177.0"/>
      <point x="273.0" y="199.0"/>
      <point x="245.0" y="199.0" type="curve" smooth="yes"/>
      <point x="217.0" y="199.0"/>
      <point x="195.0" y="177.0"/>
    </contour>
    <contour>
      <point x="373.0" y="232.0" type="line"/>
      <point x="387.0" y="209.0"/>
      <point x="394.0" y="178.0"/>
      <point x="394.0" y="150.0" type="curve" smooth="yes"/>
      <point x="394.0" y="67.0"/>
      <point x="327.0" y="0.0"/>
      <point x="245.0" y="0.0" type="curve" smooth="yes"/>
      <point x="163.0" y="0.0"/>
      <point x="97.0" y="67.0"/>
      <point x="97.0" y="150.0" type="curve" smooth="yes"/>
      <point x="97.0" y="178.0"/>
      <point x="105.0" y="209.0"/>
      <point x="118.0" y="232.0" type="curve"/>
    </contour>
    <contour>
      <point x="-20.0" y="100.0" type="line"/>
      <point x="180.0" y="100.0" type="line"/>
      <point x="245.0" y="0.0" type="line"/>
      <point x="-20.0" y="0.0" type="line"/>
    </contour>
    <contour>
      <point x="507.0" y="100.0" type="line"/>
      <point x="507.0" y="0.0" type="line"/>
      <point x="245.0" y="0.0" type="line"/>
      <point x="310.0" y="100.0" type="line"/>
    </contour>
    <contour>
      <point x="394.0" y="304.0" type="line"/>
      <point x="245.0" y="454.0" type="line"/>
      <point x="280.0" y="454.0"/>
      <point x="367.0" y="448.0"/>
      <point x="394.0" y="500.0" type="curve"/>
    </contour>
    <contour>
      <point x="195.0" y="304.0" type="curve" smooth="yes"/>
      <point x="195.0" y="276.0"/>
      <point x="217.0" y="254.0"/>
      <point x="245.0" y="254.0" type="curve" smooth="yes"/>
      <point x="273.0" y="254.0"/>
      <point x="295.0" y="276.0"/>
      <point x="295.0" y="304.0" type="curve" smooth="yes"/>
      <point x="295.0" y="332.0"/>
      <point x="273.0" y="354.0"/>
      <point x="245.0" y="354.0" type="curve" smooth="yes"/>
      <point x="217.0" y="354.0"/>
      <point x="195.0" y="332.0"/>
    </contour>
    <contour>
      <point x="118.0" y="227.0" type="line"/>
      <point x="105.0" y="250.0"/>
      <point x="97.0" y="276.0"/>
      <point x="97.0" y="304.0" type="curve" smooth="yes"/>
      <point x="97.0" y="387.0"/>
      <point x="163.0" y="454.0"/>
      <point x="245.0" y="454.0" type="curve" smooth="yes"/>
      <point x="327.0" y="454.0"/>
      <point x="394.0" y="387.0"/>
      <point x="394.0" y="304.0" type="curve" smooth="yes"/>
      <point x="394.0" y="276.0"/>
      <point x="386.0" y="250.0"/>
      <point x="372.0" y="227.0" type="curve"/>
    </contour>
  </outline>
</glyph>
<glyph name="arKaf.fina" format="2">
  <advance width="1085"/>
  <anchor x="374.0" y="467.0" name="gafAbove"/>
  <outline>
    <contour>
      <point x="1105.0" y="100.0" type="line"/>
      <point x="1105.0" y="0.0" type="line"/>
      <point x="909.0" y="0.0" type="line"/>
      <point x="909.0" y="100.0" type="line"/>
    </contour>
    <component base="arKaf.isol"/>
  </outline>
</glyph>
<glyph name="arKaf.init" format="2">
  <advance width="910"/>
  <outline>
    <contour>
      <point x="486.0322265625" y="451.2265625" type="line"/>
      <point x="477.521484375" y="465.779296875"/>
      <point x="466.6610767571775" y="463.0757041664276"/>
      <point x="459.5" y="456.0767822265625" type="curve" smooth="yes"/>
      <point x="220.0" y="222.0" type="line"/>
      <point x="154.0" y="289.0" type="line"/>
      <point x="485.967529296875" y="616.4814453125" type="line"/>
    </contour>
    <contour>
      <point x="165.0" y="300.0" type="line"/>
      <point x="695.0" y="300.0" type="line" smooth="yes"/>
      <point x="902.0" y="300.0"/>
      <point x="885.0" y="143.0"/>
      <point x="885.0" y="23.0" type="curve" smooth="yes"/>
      <point x="885.0" y="-2.0"/>
      <point x="845.0" y="0.0"/>
      <point x="845.0" y="0.0" type="curve"/>
      <point x="-20.0" y="0.0" type="line"/>
      <point x="-20.0" y="100.0" type="line"/>
      <point x="785.0" y="100.0" type="line"/>
      <point x="786.0" y="156.0"/>
      <point x="770.0" y="200.0"/>
      <point x="695.0" y="200.0" type="curve" smooth="yes"/>
      <point x="65.0" y="200.0" type="line"/>
    </contour>
  </outline>
</glyph>
<glyph name="arKaf.init1" format="2">
  <advance width="940"/>
  <anchor x="500.0" y="550.0" name="markAbove"/>
  <outline>
    <contour>
      <point x="115.0" y="200.0" type="line"/>
      <point x="115.0" y="778.0" type="line"/>
      <point x="215.0" y="800.0" type="line"/>
      <point x="215.0" y="200.0" type="line"/>
    </contour>
    <contour>
      <point x="160.0" y="300.0" type="line"/>
      <point x="725.0" y="300.0" type="line" smooth="yes"/>
      <point x="932.0" y="300.0"/>
      <point x="915.0" y="143.0"/>
      <point x="915.0" y="23.0" type="curve" smooth="yes"/>
      <point x="915.0" y="-2.0"/>
      <point x="875.0" y="0.0"/>
      <point x="875.0" y="0.0" type="curve"/>
      <point x="-20.0" y="0.0" type="line"/>
      <point x="-20.0" y="100.0" type="line"/>
      <point x="815.0" y="100.0" type="line"/>
      <point x="816.0" y="156.0"/>
      <point x="800.0" y="200.0"/>
      <point x="725.0" y="200.0" type="curve" smooth="yes"/>
      <point x="160.0" y="200.0" type="line"/>
    </contour>
  </outline>
</glyph>
<glyph name="arKaf.isol" format="2">
  <advance width="1010"/>
  <outline>
    <contour>
      <point x="586.0322265625" y="451.2265625" type="line"/>
      <point x="577.521484375" y="465.779296875"/>
      <point x="566.6610767571347" y="463.0757041663858"/>
      <point x="559.5" y="456.0767822265625" type="curve" smooth="yes"/>
      <point x="320.0" y="222.0" type="line"/>
      <point x="254.0" y="289.0" type="line"/>
      <point x="585.967529296875" y="616.4814453125" type="line"/>
    </contour>
    <contour>
      <point x="265.0" y="300.0" type="line"/>
      <point x="795.0" y="300.0" type="line" smooth="yes"/>
      <point x="1002.0" y="300.0"/>
      <point x="985.0" y="143.0"/>
      <point x="985.0" y="23.0" type="curve" smooth="yes"/>
      <point x="985.0" y="-2.0"/>
      <point x="945.0" y="0.0"/>
      <point x="945.0" y="0.0" type="curve"/>
      <point x="25.0" y="0.0" type="line"/>
      <point x="85.0" y="100.0" type="line"/>
      <point x="885.0" y="100.0" type="line"/>
      <point x="886.0" y="156.0"/>
      <point x="870.0" y="200.0"/>
      <point x="795.0" y="200.0" type="curve" smooth="yes"/>
      <point x="165.0" y="200.0" type="line"/>
    </contour>
  </outline>
</glyph>
<glyph name="arKaf.medi" format="2">
  <advance width="985"/>
  <anchor x="274.0" y="467.0" name="gafAbove"/>
  <outline>
    <contour>
      <point x="1005.0" y="100.0" type="line"/>
      <point x="1005.0" y="0.0" type="line"/>
      <point x="809.0" y="0.0" type="line"/>
      <point x="809.0" y="100.0" type="line"/>
    </contour>
    <component base="arKaf.init"/>
  </outline>
</glyph>
<glyph name="arKaf.medi1" format="2">
  <advance width="985"/>
  <outline>
    <contour>
      <point x="1005.0" y="100.0" type="line"/>
      <point x="1005.0" y="0.0" type="line"/>
      <point x="809.0" y="0.0" type="line"/>
      <point x="809.0" y="100.0" type="line"/>
    </contour>
    <contour>
      <point x="486.0" y="431.0" type="line"/>
      <point x="477.0" y="446.0"/>
      <point x="467.0" y="443.0"/>
      <point x="460.0" y="436.0" type="curve" smooth="yes"/>
      <point x="231.0" y="211.0" type="line"/>
      <point x="154.0" y="289.0" type="line"/>
      <point x="486.0" y="616.0" type="line"/>
    </contour>
    <contour>
      <point x="165.0" y="300.0" type="line"/>
      <point x="695.0" y="300.0" type="line" smooth="yes"/>
      <point x="902.0" y="300.0"/>
      <point x="885.0" y="143.0"/>
      <point x="885.0" y="23.0" type="curve" smooth="yes"/>
      <point x="885.0" y="-2.0"/>
      <point x="845.0" y="0.0"/>
      <point x="845.0" y="0.0" type="curve"/>
      <point x="-20.0" y="0.0" type="line"/>
      <point x="-20.0" y="100.0" type="line"/>
      <point x="785.0" y="100.0" type="line"/>
      <point x="786.0" y="156.0"/>
      <point x="770.0" y="200.0"/>
      <point x="695.0" y="200.0" type="curve" smooth="yes"/>
      <point x="65.0" y="200.0" type="line"/>
    </contour>
  </outline>
</glyph>
<glyph name="arKaf.medi2" format="2">
  <advance width="985"/>
  <anchor x="670.0" y="550.0" name="markAbove"/>
  <outline>
    <contour>
      <point x="345.01397705078125" y="560.63671875" type="curve"/>
      <point x="368.5234375" y="594.5751953125"/>
      <point x="357.3424377441406" y="655.9410400390625"/>
      <point x="323.0" y="685.0" type="curve" smooth="yes"/>
      <point x="295.6895751953125" y="708.408935546875"/>
      <point x="257.1572265625" y="715.2138671875"/>
      <point x="217.0" y="709.9375" type="curve" smooth="yes"/>
      <point x="195.400390625" y="707.099609375"/>
      <point x="166.0" y="687.5"/>
      <point x="149.0" y="674.0" type="curve"/>
      <point x="105.0" y="823.0" type="line"/>
      <point x="127.0" y="815.5"/>
      <point x="156.8140869140625" y="809.5872192382812"/>
      <point x="184.0" y="814.3093872070312" type="curve" smooth="yes"/>
      <point x="256.0015869140625" y="826.81591796875"/>
      <point x="340.2823791503906" y="819.5399169921875"/>
      <point x="394.0" y="768.0" type="curve" smooth="yes"/>
      <point x="474.93804931640625" y="690.9625854492188"/>
      <point x="488.3599548339844" y="577.7897338867188"/>
      <point x="425.0" y="483.0" type="curve" smooth="yes"/>
      <point x="298.3612060546875" y="300.0" type="line"/>
      <point x="675.0" y="300.0" type="line" smooth="yes"/>
      <point x="839.0" y="300.0"/>
      <point x="862.0" y="201.0"/>
      <point x="865.0" y="100.0" type="curve"/>
      <point x="1005.0" y="100.0" type="line"/>
      <point x="1005.0" y="0.0" type="line"/>
      <point x="-20.0" y="0.0" type="line"/>
      <point x="-20.0" y="100.0" type="line"/>
      <point x="765.0" y="100.0" type="line"/>
      <point x="766.0" y="156.0"/>
      <point x="750.0" y="200.0"/>
      <point x="675.0" y="200.0" type="curve" smooth="yes"/>
      <point x="94.0" y="200.0" type="line"/>
      <point x="178.84786987304688" y="319.0679931640625"/>
      <point x="345.01397705078125" y="560.63671875"/>
    </contour>
  </outline>
</glyph>
<glyph name="arLam.init" format="2">
  <advance width="225"/>
  <anchor x="155.0" y="830.0" name="markAbove"/>
  <outline>
    <contour>
      <point x="200.0" y="800.0" type="line"/>
      <point x="200.0" y="23.0" type="line" smooth="yes"/>
      <point x="200.0" y="-2.0"/>
      <point x="160.0" y="0.0"/>
      <point x="160.0" y="0.0" type="curve"/>
      <point x="-20.0" y="0.0" type="line"/>
      <point x="-20.0" y="100.0" type="line"/>
      <point x="100.0" y="100.0" type="line"/>
      <point x="100.0" y="778.0" type="line"/>
    </contour>
  </outline>
</glyph>
<glyph name="arLam.init1Alef" format="2">
  <advance width="350"/>
  <anchor x="275.0" y="830.0" name="markAbove"/>
  <outline>
    <contour>
      <point x="325.0" y="350.0" type="line"/>
      <point x="325.0" y="267.0"/>
      <point x="257.0" y="200.0"/>
      <point x="175.0" y="200.0" type="curve" smooth="yes"/>
      <point x="93.0" y="200.0"/>
      <point x="25.0" y="267.0"/>
      <point x="25.0" y="350.0" type="curve"/>
      <point x="125.0" y="350.0" type="line"/>
      <point x="125.0" y="322.0"/>
      <point x="147.0" y="300.0"/>
      <point x="175.0" y="300.0" type="curve" smooth="yes"/>
      <point x="203.0" y="300.0"/>
      <point x="225.0" y="322.0"/>
      <point x="225.0" y="350.0" type="curve"/>
    </contour>
    <contour>
      <point x="125.0" y="150.0" type="curve" smooth="yes"/>
      <point x="125.0" y="122.0"/>
      <point x="147.0" y="100.0"/>
      <point x="175.0" y="100.0" type="curve" smooth="yes"/>
      <point x="203.0" y="100.0"/>
      <point x="225.0" y="122.0"/>
      <point x="225.0" y="150.0" type="curve" smooth="yes"/>
      <point x="225.0" y="178.0"/>
      <point x="203.0" y="200.0"/>
      <point x="175.0" y="200.0" type="curve" smooth="yes"/>
      <point x="147.0" y="200.0"/>
      <point x="125.0" y="178.0"/>
    </contour>
    <contour>
      <point x="25.0" y="150.0" type="curve" smooth="yes"/>
      <point x="25.0" y="233.0"/>
      <point x="93.0" y="300.0"/>
      <point x="175.0" y="300.0" type="curve" smooth="yes"/>
      <point x="257.0" y="300.0"/>
      <point x="324.0" y="233.0"/>
      <point x="324.0" y="150.0" type="curve" smooth="yes"/>
      <point x="324.0" y="67.0"/>
      <point x="257.0" y="0.0"/>
      <point x="175.0" y="0.0" type="curve" smooth="yes"/>
      <point x="93.0" y="0.0"/>
      <point x="25.0" y="67.0"/>
    </contour>
    <contour>
      <point x="225.0" y="300.0" type="line"/>
      <point x="225.0" y="800.0" type="line"/>
      <point x="325.0" y="778.0" type="line"/>
      <point x="325.0" y="350.0" type="line"/>
    </contour>
  </outline>
</glyph>
<glyph name="arLam.medi" format="2">
  <advance width="300"/>
  <anchor x="155.0" y="830.0" name="markAbove"/>
  <anchor x="150.0" y="-150.0" name="markBelow"/>
  <outline>
    <contour>
      <point x="200.0" y="800.0" type="line"/>
      <point x="200.0" y="100.0" type="line"/>
      <point x="320.0" y="100.0" type="line"/>
      <point x="320.0" y="0.0" type="line"/>
      <point x="-20.0" y="0.0" type="line"/>
      <point x="-20.0" y="100.0" type="line"/>
      <point x="100.0" y="100.0" type="line"/>
      <point x="100.0" y="778.0" type="line"/>
    </contour>
  </outline>
</glyph>
<glyph name="arMadda.mark" format="2">
  <anchor x="0" y="0" name="_hamzaAbove"/>
  <anchor x="0" y="-50.0" name="_markAbove"/>
  <outline>
    <contour>
      <point x="-72.0" y="16.0" type="curve" smooth="yes"/>
      <point x="-72.0" y="80.0" type="line"/>
      <point x="-122.0" y="72.0" type="line"/>
      <point x="-122.0" y="16.0" type="line" smooth="yes"/>
      <point x="-122.0" y="-12.0"/>
      <point x="-120.0" y="-34.0"/>
      <point x="-150.0" y="-38.0" type="curve"/>
      <point x="-136.0" y="-41.0"/>
      <point x="-72.0" y="-57.0"/>
    </contour>
    <contour>
      <point x="65.0" y="0.0" type="line"/>
      <point x="165.0" y="0.0" type="line"/>
      <point x="127.0" y="66.0" type="line"/>
      <point x="122.0" y="55.0"/>
      <point x="110.0" y="50.0"/>
      <point x="100.0" y="50.0" type="curve" smooth="yes"/>
      <point x="65.0" y="50.0" type="line"/>
    </contour>
    <contour>
      <point x="84.0" y="50.0" type="line"/>
      <point x="-104.0" y="50.0" type="line"/>
      <point x="-104.0" y="0.0" type="line"/>
      <point x="84.0" y="0.0" type="line"/>
    </contour>
  </outline>
</glyph>
<glyph name="arMeem.fina" format="2">
  <advance width="685"/>
  <outline>
    <contour>
      <point x="705.0" y="100.0" type="line"/>
      <point x="705.0" y="0.0" type="line"/>
      <point x="440.0" y="0.0" type="line"/>
      <point x="505.0" y="100.0" type="line"/>
    </contour>
    <contour>
      <point x="291.0" y="150.0" type="curve" smooth="yes"/>
      <point x="291.0" y="218.0"/>
      <point x="336.0" y="275.0"/>
      <point x="397.0" y="294.0" type="curve" smooth="yes"/>
      <point x="411.0" y="298.0"/>
      <point x="430.0" y="310.0"/>
      <point x="440.0" y="350.0" type="curve"/>
      <point x="451.0" y="310.0"/>
      <point x="471.0" y="298.0"/>
      <point x="485.0" y="293.0" type="curve" smooth="yes"/>
      <point x="545.0" y="274.0"/>
      <point x="588.0" y="217.0"/>
      <point x="588.0" y="150.0" type="curve" smooth="yes"/>
      <point x="588.0" y="67.0"/>
      <point x="522.0" y="0.0"/>
      <point x="440.0" y="0.0" type="curve" smooth="yes"/>
      <point x="358.0" y="0.0"/>
      <point x="291.0" y="67.0"/>
    </contour>
    <contour>
      <point x="440.0" y="0.0" type="line"/>
      <point x="25.0" y="0.0" type="line"/>
      <point x="109.0" y="140.0" type="line"/>
      <point x="122.0" y="113.0"/>
      <point x="153.0" y="100.0"/>
      <point x="177.0" y="100.0" type="curve" smooth="yes"/>
      <point x="380.0" y="100.0" type="line"/>
    </contour>
    <contour>
      <point x="390.0" y="150.0" type="curve" smooth="yes"/>
      <point x="390.0" y="122.0"/>
      <point x="412.0" y="100.0"/>
      <point x="440.0" y="100.0" type="curve" smooth="yes"/>
      <point x="468.0" y="100.0"/>
      <point x="490.0" y="122.0"/>
      <point x="490.0" y="150.0" type="curve" smooth="yes"/>
      <point x="490.0" y="178.0"/>
      <point x="468.0" y="200.0"/>
      <point x="440.0" y="200.0" type="curve" smooth="yes"/>
      <point x="412.0" y="200.0"/>
      <point x="390.0" y="178.0"/>
    </contour>
  </outline>
</glyph>
<glyph name="arMeem.fina1" format="2">
  <advance width="419"/>
  <outline>
    <contour>
      <point x="439.0" y="100.0" type="line"/>
      <point x="439.0" y="0.0" type="line"/>
      <point x="174.0" y="0.0" type="line"/>
      <point x="239.0" y="100.0" type="line"/>
    </contour>
    <contour>
      <point x="25.0" y="150.0" type="curve" smooth="yes"/>
      <point x="25.0" y="218.0"/>
      <point x="70.0" y="275.0"/>
      <point x="131.0" y="294.0" type="curve" smooth="yes"/>
      <point x="145.0" y="298.0"/>
      <point x="164.0" y="310.0"/>
      <point x="174.0" y="350.0" type="curve"/>
      <point x="185.0" y="310.0"/>
      <point x="205.0" y="298.0"/>
      <point x="219.0" y="293.0" type="curve" smooth="yes"/>
      <point x="279.0" y="274.0"/>
      <point x="322.0" y="217.0"/>
      <point x="322.0" y="150.0" type="curve" smooth="yes"/>
      <point x="322.0" y="67.0"/>
      <point x="256.0" y="0.0"/>
      <point x="174.0" y="0.0" type="curve" smooth="yes"/>
      <point x="92.0" y="0.0"/>
      <point x="25.0" y="67.0"/>
    </contour>
    <contour>
      <point x="125.0" y="-100.0" type="line" smooth="yes"/>
      <point x="125.0" y="-190.0"/>
      <point x="5.0" y="-235.0"/>
      <point x="-50.0" y="-181.0" type="curve"/>
      <point x="-44.0" y="-181.0"/>
      <point x="25.0" y="-164.0"/>
      <point x="25.0" y="-100.0" type="curve" smooth="yes"/>
      <point x="25.0" y="150.0" type="line"/>
      <point x="125.0" y="92.0" type="line"/>
    </contour>
    <contour>
      <point x="124.0" y="150.0" type="curve" smooth="yes"/>
      <point x="124.0" y="122.0"/>
      <point x="146.0" y="100.0"/>
      <point x="174.0" y="100.0" type="curve" smooth="yes"/>
      <point x="202.0" y="100.0"/>
      <point x="224.0" y="122.0"/>
      <point x="224.0" y="150.0" type="curve" smooth="yes"/>
      <point x="224.0" y="178.0"/>
      <point x="202.0" y="200.0"/>
      <point x="174.0" y="200.0" type="curve" smooth="yes"/>
      <point x="146.0" y="200.0"/>
      <point x="124.0" y="178.0"/>
    </contour>
  </outline>
</glyph>
<glyph name="arMeem.fina2" format="2">
  <advance width="507"/>
  <outline>
    <contour>
      <point x="527.0" y="100.0" type="line"/>
      <point x="527.0" y="0.0" type="line"/>
      <point x="262.0" y="0.0" type="line"/>
      <point x="327.0" y="100.0" type="line"/>
    </contour>
    <contour>
      <point x="113.0" y="150.0" type="curve" smooth="yes"/>
      <point x="113.0" y="218.0"/>
      <point x="158.0" y="275.0"/>
      <point x="219.0" y="294.0" type="curve" smooth="yes"/>
      <point x="233.0" y="298.0"/>
      <point x="252.0" y="310.0"/>
      <point x="262.0" y="350.0" type="curve"/>
      <point x="273.0" y="310.0"/>
      <point x="293.0" y="298.0"/>
      <point x="307.0" y="293.0" type="curve" smooth="yes"/>
      <point x="367.0" y="274.0"/>
      <point x="410.0" y="217.0"/>
      <point x="410.0" y="150.0" type="curve" smooth="yes"/>
      <point x="410.0" y="67.0"/>
      <point x="344.0" y="0.0"/>
      <point x="262.0" y="0.0" type="curve" smooth="yes"/>
      <point x="180.0" y="0.0"/>
      <point x="113.0" y="67.0"/>
    </contour>
    <contour>
      <point x="212.0" y="150.0" type="curve" smooth="yes"/>
      <point x="212.0" y="122.0"/>
      <point x="234.0" y="100.0"/>
      <point x="262.0" y="100.0" type="curve" smooth="yes"/>
      <point x="290.0" y="100.0"/>
      <point x="312.0" y="122.0"/>
      <point x="312.0" y="150.0" type="curve" smooth="yes"/>
      <point x="312.0" y="178.0"/>
      <point x="290.0" y="200.0"/>
      <point x="262.0" y="200.0" type="curve" smooth="yes"/>
      <point x="234.0" y="200.0"/>
      <point x="212.0" y="178.0"/>
    </contour>
    <contour>
      <point x="262.0" y="0.0" type="line"/>
      <point x="25.0" y="0.0" type="line"/>
      <point x="25.0" y="10.0" type="line"/>
      <point x="114.0" y="32.0"/>
      <point x="113.0" y="115.0"/>
      <point x="113.0" y="150.0" type="curve"/>
    </contour>
  </outline>
</glyph>
<glyph name="arMeem.isol" format="2">
  <advance width="613"/>
  <outline>
    <contour>
      <point x="440.0" y="0.0" type="line"/>
      <point x="25.0" y="0.0" type="line"/>
      <point x="109.0" y="140.0" type="line"/>
      <point x="122.0" y="113.0"/>
      <point x="153.0" y="100.0"/>
      <point x="177.0" y="100.0" type="curve" smooth="yes"/>
      <point x="380.0" y="100.0" type="line"/>
    </contour>
    <contour>
      <point x="390.0" y="150.0" type="curve" smooth="yes"/>
      <point x="390.0" y="122.0"/>
      <point x="412.0" y="100.0"/>
      <point x="440.0" y="100.0" type="curve" smooth="yes"/>
      <point x="468.0" y="100.0"/>
      <point x="490.0" y="122.0"/>
      <point x="490.0" y="150.0" type="curve" smooth="yes"/>
      <point x="490.0" y="178.0"/>
      <point x="468.0" y="200.0"/>
      <point x="440.0" y="200.0" type="curve" smooth="yes"/>
      <point x="412.0" y="200.0"/>
      <point x="390.0" y="178.0"/>
    </contour>
    <contour>
      <point x="291.0" y="150.0" type="curve" smooth="yes"/>
      <point x="291.0" y="229.0"/>
      <point x="353.0" y="295.0"/>
      <point x="430.0" y="300.0" type="curve"/>
      <point x="437.0" y="326.0"/>
      <point x="448.0" y="337.0"/>
      <point x="459.0" y="349.0" type="curve"/>
      <point x="547.0" y="294.0"/>
      <point x="588.0" y="226.0"/>
      <point x="588.0" y="150.0" type="curve" smooth="yes"/>
      <point x="588.0" y="67.0"/>
      <point x="522.0" y="0.0"/>
      <point x="440.0" y="0.0" type="curve" smooth="yes"/>
      <point x="358.0" y="0.0"/>
      <point x="291.0" y="67.0"/>
    </contour>
  </outline>
</glyph>
<glyph name="arMeem.medi" format="2">
  <advance width="490"/>
  <anchor x="243.0" y="550.0" name="markAbove"/>
  <outline>
    <contour>
      <point x="-20.0" y="100.0" type="line"/>
      <point x="180.0" y="100.0" type="line"/>
      <point x="245.0" y="0.0" type="line"/>
      <point x="-20.0" y="0.0" type="line"/>
    </contour>
    <contour>
      <point x="510.0" y="100.0" type="line"/>
      <point x="510.0" y="0.0" type="line"/>
      <point x="245.0" y="0.0" type="line"/>
      <point x="310.0" y="100.0" type="line"/>
    </contour>
    <contour>
      <point x="96.0" y="150.0" type="curve" smooth="yes"/>
      <point x="96.0" y="218.0"/>
      <point x="141.0" y="275.0"/>
      <point x="202.0" y="294.0" type="curve" smooth="yes"/>
      <point x="216.0" y="298.0"/>
      <point x="235.0" y="310.0"/>
      <point x="245.0" y="350.0" type="curve"/>
      <point x="256.0" y="310.0"/>
      <point x="276.0" y="298.0"/>
      <point x="290.0" y="293.0" type="curve" smooth="yes"/>
      <point x="350.0" y="274.0"/>
      <point x="393.0" y="217.0"/>
      <point x="393.0" y="150.0" type="curve" smooth="yes"/>
      <point x="393.0" y="67.0"/>
      <point x="327.0" y="0.0"/>
      <point x="245.0" y="0.0" type="curve" smooth="yes"/>
      <point x="163.0" y="0.0"/>
      <point x="96.0" y="67.0"/>
    </contour>
    <contour>
      <point x="195.0" y="150.0" type="curve" smooth="yes"/>
      <point x="195.0" y="122.0"/>
      <point x="217.0" y="100.0"/>
      <point x="245.0" y="100.0" type="curve" smooth="yes"/>
      <point x="273.0" y="100.0"/>
      <point x="295.0" y="122.0"/>
      <point x="295.0" y="150.0" type="curve" smooth="yes"/>
      <point x="295.0" y="178.0"/>
      <point x="273.0" y="200.0"/>
      <point x="245.0" y="200.0" type="curve" smooth="yes"/>
      <point x="217.0" y="200.0"/>
      <point x="195.0" y="178.0"/>
    </contour>
  </outline>
</glyph>
<glyph name="arMeem.medi1" format="2">
  <advance width="490"/>
  <outline>
    <contour>
      <point x="96.0" y="50.0" type="curve" smooth="yes"/>
      <point x="96.0" y="129.0"/>
      <point x="158.0" y="195.0"/>
      <point x="235.0" y="200.0" type="curve"/>
      <point x="242.0" y="226.0"/>
      <point x="253.0" y="237.0"/>
      <point x="264.0" y="249.0" type="curve"/>
      <point x="352.0" y="194.0"/>
      <point x="393.0" y="126.0"/>
      <point x="393.0" y="50.0" type="curve" smooth="yes"/>
      <point x="393.0" y="-33.0"/>
      <point x="327.0" y="-100.0"/>
      <point x="245.0" y="-100.0" type="curve" smooth="yes"/>
      <point x="163.0" y="-100.0"/>
      <point x="96.0" y="-33.0"/>
    </contour>
    <contour>
      <point x="-20.0" y="100.0" type="line"/>
      <point x="180.0" y="100.0" type="line"/>
      <point x="180.0" y="0.0" type="line"/>
      <point x="-20.0" y="0.0" type="line"/>
    </contour>
    <contour>
      <point x="510.0" y="100.0" type="line"/>
      <point x="510.0" y="0.0" type="line"/>
      <point x="310.0" y="0.0" type="line"/>
      <point x="310.0" y="100.0" type="line"/>
    </contour>
    <contour>
      <point x="195.0" y="50.0" type="curve" smooth="yes"/>
      <point x="195.0" y="22.0"/>
      <point x="217.0" y="0.0"/>
      <point x="245.0" y="0.0" type="curve" smooth="yes"/>
      <point x="273.0" y="0.0"/>
      <point x="295.0" y="22.0"/>
      <point x="295.0" y="50.0" type="curve" smooth="yes"/>
      <point x="295.0" y="78.0"/>
      <point x="273.0" y="100.0"/>
      <point x="245.0" y="100.0" type="curve" smooth="yes"/>
      <point x="217.0" y="100.0"/>
      <point x="195.0" y="78.0"/>
    </contour>
  </outline>
</glyph>
<glyph name="arNoon.fina" format="2">
  <advance width="490"/>
  <outline>
    <contour>
      <point x="510.0" y="100.0" type="line"/>
      <point x="510.0" y="0.0" type="line"/>
      <point x="364.0" y="0.0" type="line"/>
      <point x="364.0" y="100.0" type="line"/>
    </contour>
    <component base="arNoon.isol"/>
  </outline>
</glyph>
<glyph name="arNoon.isol" format="2">
  <advance width="460"/>
  <outline>
    <contour>
      <point x="435.0" y="5.0" type="curve" smooth="yes"/>
      <point x="435.0" y="-108.0"/>
      <point x="354.0" y="-204.0"/>
      <point x="221.0" y="-204.0" type="curve" smooth="yes"/>
      <point x="64.0" y="-204.0"/>
      <point x="25.0" y="-62.0"/>
      <point x="25.0" y="0.0" type="curve" smooth="yes"/>
      <point x="25.0" y="88.0"/>
      <point x="88.0" y="167.0"/>
      <point x="151.0" y="207.0" type="curve"/>
      <point x="154.0" y="182.0"/>
      <point x="150.0" y="160.0"/>
      <point x="131.0" y="135.0" type="curve"/>
      <point x="152.0" y="125.0"/>
      <point x="166.0" y="100.0"/>
      <point x="160.0" y="77.0" type="curve"/>
      <point x="141.0" y="88.0"/>
      <point x="129.0" y="92.0"/>
      <point x="111.0" y="90.0" type="curve" smooth="yes"/>
      <point x="73.0" y="86.0"/>
      <point x="55.0" y="39.0"/>
      <point x="55.0" y="0.0" type="curve" smooth="yes"/>
      <point x="55.0" y="-69.0"/>
      <point x="102.0" y="-136.0"/>
      <point x="216.0" y="-136.0" type="curve" smooth="yes"/>
      <point x="318.0" y="-136.0"/>
      <point x="355.0" y="-51.0"/>
      <point x="350.0" y="20.0" type="curve" smooth="yes"/>
      <point x="346.0" y="77.0"/>
      <point x="305.0" y="134.0"/>
      <point x="285.0" y="158.0" type="curve"/>
      <point x="337.0" y="262.0" type="line"/>
      <point x="387.0" y="200.0"/>
      <point x="435.0" y="122.0"/>
    </contour>
  </outline>
</glyph>
<glyph name="arQaf.fina" format="2">
  <advance width="600"/>
  <outline>
    <contour>
      <point x="620.0" y="100.0" type="line"/>
      <point x="620.0" y="0.0" type="line"/>
      <point x="342.0" y="0.0" type="line"/>
      <point x="342.0" y="100.0" type="line"/>
    </contour>
    <component base="arQaf.isol"/>
  </outline>
</glyph>
<glyph name="arQaf.isol" format="2">
  <advance width="515"/>
  <anchor x="340.0" y="500.0" name="dotAbove"/>
  <outline>
    <contour>
      <point x="292.0" y="150.0" type="curve" smooth="yes"/>
      <point x="292.0" y="122.0"/>
      <point x="314.0" y="100.0"/>
      <point x="342.0" y="100.0" type="curve" smooth="yes"/>
      <point x="370.0" y="100.0"/>
      <point x="392.0" y="122.0"/>
      <point x="392.0" y="150.0" type="curve" smooth="yes"/>
      <point x="392.0" y="178.0"/>
      <point x="370.0" y="200.0"/>
      <point x="342.0" y="200.0" type="curve" smooth="yes"/>
      <point x="314.0" y="200.0"/>
      <point x="292.0" y="178.0"/>
    </contour>
    <contour>
      <point x="193.0" y="150.0" type="curve" smooth="yes"/>
      <point x="193.0" y="233.0"/>
      <point x="260.0" y="300.0"/>
      <point x="342.0" y="300.0" type="curve" smooth="yes"/>
      <point x="424.0" y="300.0"/>
      <point x="490.0" y="233.0"/>
      <point x="490.0" y="150.0" type="curve" smooth="yes"/>
      <point x="490.0" y="67.0"/>
      <point x="424.0" y="0.0"/>
      <point x="342.0" y="0.0" type="curve" smooth="yes"/>
      <point x="260.0" y="0.0"/>
      <point x="193.0" y="67.0"/>
    </contour>
    <contour>
      <point x="490.0" y="50.0" type="line" smooth="yes"/>
      <point x="490.0" y="-3.0"/>
      <point x="477.0" y="-215.0"/>
      <point x="246.0" y="-215.0" type="curve" smooth="yes"/>
      <point x="93.0" y="-215.0"/>
      <point x="25.0" y="-97.0"/>
      <point x="25.0" y="-5.0" type="curve" smooth="yes"/>
      <point x="25.0" y="83.0"/>
      <point x="59.0" y="155.0"/>
      <point x="107.0" y="198.0" type="curve"/>
      <point x="110.0" y="173.0"/>
      <point x="113.0" y="150.0"/>
      <point x="94.0" y="125.0" type="curve"/>
      <point x="105.0" y="126.0"/>
      <point x="135.0" y="120.0"/>
      <point x="142.0" y="83.0" type="curve"/>
      <point x="114.0" y="87.0"/>
      <point x="97.0" y="85.0"/>
      <point x="83.0" y="76.0" type="curve" smooth="yes"/>
      <point x="64.0" y="64.0"/>
      <point x="55.0" y="28.0"/>
      <point x="55.0" y="-5.0" type="curve" smooth="yes"/>
      <point x="55.0" y="-81.0"/>
      <point x="122.0" y="-148.0"/>
      <point x="246.0" y="-148.0" type="curve" smooth="yes"/>
      <point x="348.0" y="-148.0"/>
      <point x="390.0" y="-101.0"/>
      <point x="390.0" y="10.0" type="curve" smooth="yes"/>
      <point x="390.0" y="78.0" type="line"/>
      <point x="490.0" y="150.0" type="line"/>
    </contour>
  </outline>
</glyph>
<glyph name="arReh.isol" format="2">
  <advance width="225"/>
  <outline>
    <contour>
      <point x="200.0" y="-60.0" type="line" smooth="yes"/>
      <point x="200.0" y="-237.0"/>
      <point x="-19.0" y="-244.0"/>
      <point x="-85.0" y="-150.0" type="curve"/>
      <point x="68.0" y="-191.0"/>
      <point x="100.0" y="-127.0"/>
      <point x="100.0" y="-70.0" type="curve" smooth="yes"/>
      <point x="100.0" y="278.0" type="line"/>
      <point x="200.0" y="300.0" type="line"/>
    </contour>
  </outline>
</glyph>
<glyph name="arSad.fina" format="2">
  <advance width="1245"/>
  <outline>
    <contour>
      <point x="390.0" y="300.0" type="line"/>
      <point x="955.0" y="300.0" type="line" smooth="yes"/>
      <point x="1119.0" y="300.0"/>
      <point x="1142.0" y="201.0"/>
      <point x="1145.0" y="100.0" type="curve"/>
      <point x="1265.0" y="100.0" type="line"/>
      <point x="1265.0" y="0.0" type="line"/>
      <point x="390.0" y="0.0" type="line"/>
      <point x="390.0" y="100.0" type="line"/>
      <point x="1045.0" y="100.0" type="line"/>
      <point x="1046.0" y="156.0"/>
      <point x="1030.0" y="200.0"/>
      <point x="955.0" y="200.0" type="curve" smooth="yes"/>
      <point x="390.0" y="200.0" type="line"/>
    </contour>
    <contour>
      <point x="445.0" y="-0.0" type="line"/>
      <point x="444.0" y="-113.0"/>
      <point x="367.0" y="-200.0"/>
      <point x="216.0" y="-200.0" type="curve" smooth="yes"/>
      <point x="53.0" y="-200.0"/>
      <point x="25.0" y="-62.0"/>
      <point x="25.0" y="0.0" type="curve" smooth="yes"/>
      <point x="25.0" y="88.0"/>
      <point x="88.0" y="167.0"/>
      <point x="151.0" y="207.0" type="curve"/>
      <point x="154.0" y="182.0"/>
      <point x="150.0" y="160.0"/>
      <point x="131.0" y="135.0" type="curve"/>
      <point x="152.0" y="125.0"/>
      <point x="166.0" y="100.0"/>
      <point x="160.0" y="77.0" type="curve"/>
      <point x="141.0" y="88.0"/>
      <point x="129.0" y="92.0"/>
      <point x="111.0" y="90.0" type="curve" smooth="yes"/>
      <point x="73.0" y="86.0"/>
      <point x="55.0" y="39.0"/>
      <point x="55.0" y="0.0" type="curve" smooth="yes"/>
      <point x="55.0" y="-76.0"/>
      <point x="92.0" y="-143.0"/>
      <point x="216.0" y="-143.0" type="curve" smooth="yes"/>
      <point x="318.0" y="-143.0"/>
      <point x="345.0" y="-71.0"/>
      <point x="345.0" y="40.0" type="curve" smooth="yes"/>
      <point x="345.0" y="378.0" type="line"/>
      <point x="445.0" y="400.0" type="line"/>
    </contour>
  </outline>
</glyph>
<glyph name="arSad.init" format="2">
  <advance width="940"/>
  <outline>
    <contour>
      <point x="115.0" y="50.0" type="line"/>
      <point x="115.0" y="378.0" type="line"/>
      <point x="215.0" y="400.0" type="line"/>
      <point x="215.0" y="50.0" type="line"/>
    </contour>
    <contour>
      <point x="160.0" y="300.0" type="line"/>
      <point x="725.0" y="300.0" type="line" smooth="yes"/>
      <point x="932.0" y="300.0"/>
      <point x="915.0" y="143.0"/>
      <point x="915.0" y="23.0" type="curve" smooth="yes"/>
      <point x="915.0" y="-2.0"/>
      <point x="875.0" y="0.0"/>
      <point x="875.0" y="0.0" type="curve"/>
      <point x="-20.0" y="0.0" type="line"/>
      <point x="-20.0" y="100.0" type="line"/>
      <point x="815.0" y="100.0" type="line"/>
      <point x="816.0" y="156.0"/>
      <point x="800.0" y="200.0"/>
      <point x="725.0" y="200.0" type="curve" smooth="yes"/>
      <point x="160.0" y="200.0" type="line"/>
    </contour>
  </outline>
</glyph>
<glyph name="arSad.mark" format="2">
  <anchor x="0" y="0" name="_hamzaAbove"/>
  <outline>
    <contour>
      <point x="-64.0" y="16.0" type="curve" smooth="yes"/>
      <point x="-64.0" y="160.0" type="line"/>
      <point x="-114.0" y="152.0" type="line"/>
      <point x="-114.0" y="16.0" type="line" smooth="yes"/>
      <point x="-114.0" y="-12.0"/>
      <point x="-112.0" y="-34.0"/>
      <point x="-142.0" y="-38.0" type="curve"/>
      <point x="-128.0" y="-41.0"/>
      <point x="-64.0" y="-57.0"/>
    </contour>
    <contour>
      <point x="-96.0" y="140.0" type="line"/>
      <point x="-96.0" y="90.0" type="line"/>
      <point x="60.0" y="90.0" type="line" smooth="yes"/>
      <point x="90.0" y="90.0"/>
      <point x="92.0" y="72.0"/>
      <point x="92.0" y="50.0" type="curve"/>
      <point x="-96.0" y="50.0" type="line"/>
      <point x="-96.0" y="0.0" type="line"/>
      <point x="126.0" y="0.0" type="line"/>
      <point x="126.0" y="0.0"/>
      <point x="142.0" y="0.0"/>
      <point x="142.0" y="10.0" type="curve" smooth="yes"/>
      <point x="142.0" y="58.0"/>
      <point x="149.0" y="140.0"/>
      <point x="66.0" y="140.0" type="curve" smooth="yes"/>
    </contour>
  </outline>
</glyph>
<glyph name="arSad.medi" format="2">
  <advance width="1015"/>
  <outline>
    <contour>
      <point x="1035.0" y="100.0" type="line"/>
      <point x="1035.0" y="0.0" type="line"/>
      <point x="840.0" y="0.0" type="line"/>
      <point x="840.0" y="100.0" type="line"/>
    </contour>
    <component base="arSad.init"/>
  </outline>
</glyph>
<glyph name="arSeen.init" format="2">
  <advance width="625"/>
  <outline>
    <contour>
      <point x="600.0" y="300.0" type="line"/>
      <point x="600.0" y="23.0" type="line" smooth="yes"/>
      <point x="600.0" y="-2.0"/>
      <point x="560.0" y="0.0"/>
      <point x="560.0" y="0.0" type="curve"/>
      <point x="-20.0" y="0.0" type="line"/>
      <point x="-20.0" y="100.0" type="line"/>
      <point x="100.0" y="100.0" type="line"/>
      <point x="100.0" y="278.0" type="line"/>
      <point x="200.0" y="300.0" type="line"/>
      <point x="200.0" y="100.0" type="line"/>
      <point x="300.0" y="100.0" type="line"/>
      <point x="300.0" y="278.0" type="line"/>
      <point x="400.0" y="300.0" type="line"/>
      <point x="400.0" y="100.0" type="line"/>
      <point x="500.0" y="100.0" type="line"/>
      <point x="500.0" y="278.0" type="line"/>
    </contour>
  </outline>
</glyph>
<glyph name="arSeen.medi" format="2">
  <advance width="700"/>
  <anchor x="345.0" y="550.0" name="dotAbove"/>
  <outline>
    <contour>
      <point x="720.0" y="100.0" type="line"/>
      <point x="720.0" y="0.0" type="line"/>
      <point x="-20.0" y="0.0" type="line"/>
      <point x="-20.0" y="100.0" type="line"/>
      <point x="100.0" y="100.0" type="line"/>
      <point x="100.0" y="278.0" type="line"/>
      <point x="200.0" y="300.0" type="line"/>
      <point x="200.0" y="100.0" type="line"/>
      <point x="300.0" y="100.0" type="line"/>
      <point x="300.0" y="328.0" type="line"/>
      <point x="400.0" y="350.0" type="line"/>
      <point x="400.0" y="100.0" type="line"/>
      <point x="500.0" y="100.0" type="line"/>
      <point x="500.0" y="378.0" type="line"/>
      <point x="600.0" y="400.0" type="line"/>
      <point x="600.0" y="100.0" type="line"/>
    </contour>
  </outline>
</glyph>
<glyph name="arSharta.mark" format="2">
  <anchor x="0" y="0" name="_gafAbove"/>
  <outline>
    <contour>
      <point x="211.0" y="208.0" type="line"/>
      <point x="-211.0" y="-208.0" type="line"/>
      <point x="-210.0" y="-160.0" type="line"/>
      <point x="211.0" y="255.0" type="line"/>
    </contour>
  </outline>
</glyph>
<glyph name="arTah.fina" format="2">
  <advance width="1085"/>
  <outline>
    <contour>
      <point x="230.0" y="300.0" type="line"/>
      <point x="795.0" y="300.0" type="line" smooth="yes"/>
      <point x="959.0" y="300.0"/>
      <point x="982.0" y="201.0"/>
      <point x="985.0" y="100.0" type="curve"/>
      <point x="1105.0" y="100.0" type="line"/>
      <point x="1105.0" y="0.0" type="line"/>
      <point x="25.0" y="0.0" type="line"/>
      <point x="85.0" y="100.0" type="line"/>
      <point x="885.0" y="100.0" type="line"/>
      <point x="886.0" y="156.0"/>
      <point x="870.0" y="200.0"/>
      <point x="795.0" y="200.0" type="curve" smooth="yes"/>
      <point x="230.0" y="200.0" type="line"/>
    </contour>
    <contour>
      <point x="185.0" y="50.0" type="line"/>
      <point x="185.0" y="778.0" type="line"/>
      <point x="285.0" y="800.0" type="line"/>
      <point x="285.0" y="50.0" type="line"/>
    </contour>
  </outline>
</glyph>
<glyph name="arTah.medi" format="2">
  <advance width="1015"/>
  <outline>
    <contour>
      <point x="125.0" y="100.0" type="line"/>
      <point x="125.0" y="0.0" type="line"/>
      <point x="-50.0" y="0.0" type="line"/>
      <point x="-50.0" y="100.0" type="line"/>
    </contour>
    <contour>
      <point x="1035.0" y="100.0" type="line"/>
      <point x="1035.0" y="0.0" type="line"/>
      <point x="860.0" y="0.0" type="line"/>
      <point x="860.0" y="100.0" type="line"/>
    </contour>
    <component base="arTah.isol" xOffset="-70"/>
  </outline>
</glyph>
<glyph name="arWaw.fina1" format="2">
  <advance width="400"/>
  <anchor x="174.0" y="400.0" name="hamzaAbove"/>
  <anchor x="174.0" y="550.0" name="markAbove"/>
  <outline>
    <contour>
      <point x="420.0" y="100.0" type="line"/>
      <point x="420.0" y="0.0" type="line"/>
      <point x="174.0" y="0.0" type="line"/>
      <point x="224.0" y="100.0" type="line"/>
    </contour>
    <contour>
      <point x="124.0" y="150.0" type="curve" smooth="yes"/>
      <point x="124.0" y="122.0"/>
      <point x="146.0" y="100.0"/>
      <point x="174.0" y="100.0" type="curve" smooth="yes"/>
      <point x="202.0" y="100.0"/>
      <point x="224.0" y="122.0"/>
      <point x="224.0" y="150.0" type="curve" smooth="yes"/>
      <point x="224.0" y="178.0"/>
      <point x="202.0" y="200.0"/>
      <point x="174.0" y="200.0" type="curve" smooth="yes"/>
      <point x="146.0" y="200.0"/>
      <point x="124.0" y="178.0"/>
    </contour>
    <contour>
      <point x="25.0" y="150.0" type="curve" smooth="yes"/>
      <point x="25.0" y="229.0"/>
      <point x="87.0" y="295.0"/>
      <point x="164.0" y="300.0" type="curve"/>
      <point x="171.0" y="326.0"/>
      <point x="182.0" y="337.0"/>
      <point x="193.0" y="349.0" type="curve"/>
      <point x="281.0" y="294.0"/>
      <point x="322.0" y="226.0"/>
      <point x="322.0" y="150.0" type="curve" smooth="yes"/>
      <point x="322.0" y="67.0"/>
      <point x="256.0" y="0.0"/>
      <point x="174.0" y="0.0" type="curve" smooth="yes"/>
      <point x="92.0" y="0.0"/>
      <point x="25.0" y="67.0"/>
    </contour>
    <contour>
      <point x="222.0" y="128.0" type="curve"/>
      <point x="318.0" y="190.0" type="line"/>
      <point x="328.0" y="141.0"/>
      <point x="329.0" y="71.0"/>
      <point x="316.0" y="6.0" type="curve" smooth="yes"/>
      <point x="288.0" y="-130.0"/>
      <point x="218.0" y="-174.0"/>
      <point x="154.0" y="-178.0" type="curve" smooth="yes"/>
      <point x="110.0" y="-181.0"/>
      <point x="59.0" y="-171.0"/>
      <point x="25.0" y="-125.0" type="curve"/>
      <point x="205.0" y="-154.0"/>
      <point x="214.0" y="-18.0"/>
    </contour>
  </outline>
</glyph>
<glyph name="arWaw.isol" format="2">
  <advance width="347"/>
  <anchor x="174.0" y="400.0" name="hamzaAbove"/>
  <anchor x="174.0" y="550.0" name="markAbove"/>
  <anchor x="174.0" y="-270.0" name="markBelow"/>
  <outline>
    <contour>
      <point x="322.0" y="-42.0" type="line" smooth="yes"/>
      <point x="322.0" y="-219.0"/>
      <point x="103.0" y="-226.0"/>
      <point x="37.0" y="-132.0" type="curve"/>
      <point x="190.0" y="-173.0"/>
      <point x="222.0" y="-109.0"/>
      <point x="222.0" y="-52.0" type="curve" smooth="yes"/>
      <point x="222.0" y="128.0" type="line"/>
      <point x="322.0" y="150.0" type="line"/>
    </contour>
    <contour>
      <point x="322.0" y="150.0" type="line"/>
      <point x="173.0" y="300.0" type="line"/>
      <point x="208.0" y="300.0"/>
      <point x="295.0" y="294.0"/>
      <point x="322.0" y="346.0" type="curve"/>
    </contour>
    <contour>
      <point x="124.0" y="150.0" type="curve" smooth="yes"/>
      <point x="124.0" y="122.0"/>
      <point x="146.0" y="100.0"/>
      <point x="174.0" y="100.0" type="curve" smooth="yes"/>
      <point x="202.0" y="100.0"/>
      <point x="224.0" y="122.0"/>
      <point x="224.0" y="150.0" type="curve" smooth="yes"/>
      <point x="224.0" y="178.0"/>
      <point x="202.0" y="200.0"/>
      <point x="174.0" y="200.0" type="curve" smooth="yes"/>
      <point x="146.0" y="200.0"/>
      <point x="124.0" y="178.0"/>
    </contour>
    <contour>
      <point x="25.0" y="150.0" type="curve" smooth="yes"/>
      <point x="25.0" y="233.0"/>
      <point x="91.0" y="300.0"/>
      <point x="173.0" y="300.0" type="curve" smooth="yes"/>
      <point x="255.0" y="300.0"/>
      <point x="322.0" y="233.0"/>
      <point x="322.0" y="150.0" type="curve" smooth="yes"/>
      <point x="322.0" y="67.0"/>
      <point x="255.0" y="0.0"/>
      <point x="173.0" y="0.0" type="curve" smooth="yes"/>
      <point x="91.0" y="0.0"/>
      <point x="25.0" y="67.0"/>
    </contour>
  </outline>
</glyph>
<glyph name="arYeh.fina" format="2">
  <advance width="680"/>
  <anchor x="240.0" y="-300.0" name="dotBelow"/>
  <anchor x="90.0" y="0" name="hamzaAbove"/>
  <anchor x="240.0" y="-300.0" name="markBelow"/>
  <outline>
    <contour>
      <point x="700.0" y="100.0" type="line"/>
      <point x="544.0" y="100.0" type="line"/>
      <point x="544.0" y="0.0" type="line"/>
      <point x="700.0" y="0.0" type="line"/>
    </contour>
    <contour>
      <point x="372.0" y="-100.0" type="line"/>
      <point x="177.0" y="-100.0" type="line" smooth="yes"/>
      <point x="153.0" y="-100.0"/>
      <point x="122.0" y="-87.0"/>
      <point x="109.0" y="-60.0" type="curve"/>
      <point x="25.0" y="-200.0" type="line"/>
      <point x="430.0" y="-200.0" type="line"/>
    </contour>
    <contour>
      <point x="507.0" y="-200.0" type="line"/>
      <point x="249.0" y="252.0" type="line" smooth="yes"/>
      <point x="212.0" y="317.0"/>
      <point x="226.0" y="383.0"/>
      <point x="275.0" y="410.0" type="curve"/>
      <point x="512.0" y="0.0" type="line"/>
      <point x="627.0" y="0.0" type="line"/>
      <point x="288.0" y="591.0" type="line"/>
      <point x="288.0" y="539.0"/>
      <point x="264.0" y="523.0"/>
      <point x="223.0" y="493.0" type="curve" smooth="yes"/>
      <point x="142.0" y="433.0"/>
      <point x="80.0" y="345.0"/>
      <point x="162.0" y="203.0" type="curve" smooth="yes"/>
      <point x="393.0" y="-200.0" type="line"/>
    </contour>
  </outline>
</glyph>
<glyph name="arYehBarree.fina" format="2">
  <advance width="1045"/>
  <anchor x="184.0" y="700.0" name="markAbove"/>
  <anchor x="490.0" y="-270.0" name="markBelow"/>
  <outline>
    <contour>
      <point x="1065.0" y="100.0" type="line"/>
      <point x="444.0" y="100.0" type="line"/>
      <point x="444.0" y="0.0" type="line"/>
      <point x="1065.0" y="0.0" type="line"/>
    </contour>
    <contour>
      <point x="320.0" y="-200.0" type="line"/>
      <point x="1020.0" y="-200.0" type="line"/>
      <point x="960.0" y="-100.0" type="line"/>
      <point x="320.0" y="-100.0" type="line"/>
    </contour>
    <contour>
      <point x="409.0" y="-200.0" type="line"/>
      <point x="151.0" y="252.0" type="line" smooth="yes"/>
      <point x="114.0" y="317.0"/>
      <point x="128.0" y="383.0"/>
      <point x="177.0" y="410.0" type="curve"/>
      <point x="414.0" y="0.0" type="line"/>
      <point x="529.0" y="0.0" type="line"/>
      <point x="190.0" y="591.0" type="line"/>
      <point x="190.0" y="539.0"/>
      <point x="166.0" y="523.0"/>
      <point x="125.0" y="493.0" type="curve" smooth="yes"/>
      <point x="44.0" y="433.0"/>
      <point x="-18.0" y="345.0"/>
      <point x="64.0" y="203.0" type="curve" smooth="yes"/>
      <point x="295.0" y="-200.0" type="line"/>
    </contour>
  </outline>
</glyph>
<glyph name="uni06F4.urd" format="2">
  <advance width="600"/>
  <outline>
    <contour>
      <point x="70" y="0" type="line"/>
      <point x="170" y="0" type="line"/>
      <point x="170" y="599" type="line"/>
      <point x="70" y="577" type="line"/>
    </contour>
    <contour>
      <point x="330" y="349" type="line"/>
      <point x="330" y="576" type="line" smooth="yes"/>
      <point x="330" y="601"/>
      <point x="290" y="599"/>
      <point x="290" y="599" type="curve"/>
      <point x="170" y="599" type="line"/>
      <point x="170" y="499" type="line"/>
      <point x="230" y="499" type="line"/>
      <point x="230" y="371" type="line"/>
    </contour>
    <contour>
      <point x="330" y="349" type="line"/>
      <point x="462" y="426" type="line"/>
      <point x="467" y="527" type="line"/>
      <point x="313" y="446" type="line"/>
    </contour>
  </outline>
</glyph>
